<?xml version="1.0" standalone="no"?>
<!DOCTYPE svg PUBLIC "-//W3C//DTD SVG 20010904//EN"
 "http://www.w3.org/TR/2001/REC-SVG-20010904/DTD/svg10.dtd">
<svg version="1.0" xmlns="http://www.w3.org/2000/svg"
 width="200.000000pt" height="200.000000pt" viewBox="0 0 200.000000 200.000000"
 preserveAspectRatio="xMidYMid meet">
<metadata>
Created by potrace 1.16, written by Peter Selinger 2001-2019
</metadata>
<g transform="translate(0.000000,200.000000) scale(0.100000,-0.100000)"
fill="#000000" stroke="none">
<path d="M925 1594 c-67 -38 -208 -94 -302 -121 l-63 -18 -1 -45 c-5 -303 55
-482 219 -654 56 -58 198 -166 218 -166 23 0 132 77 198 139 107 102 185 232
221 370 20 77 34 238 28 306 l-5 50 -112 35 c-61 19 -159 59 -218 87 -59 29
-111 52 -115 52 -4 -1 -35 -16 -68 -35z m185 -51 c58 -28 149 -65 203 -83 l97
-32 -2 -106 -2 -107 -3 102 -4 101 -44 16 c-25 8 -45 11 -45 7 0 -4 14 -11 30
-16 l31 -10 2 -110 c2 -64 0 -97 -5 -80 -5 21 -6 14 -3 -21 3 -28 2 -54 -2
-57 -4 -4 -7 -15 -8 -25 -1 -9 -11 -42 -21 -72 -27 -79 -30 -32 -4 61 11 41
23 119 26 174 l7 100 -104 35 c-57 19 -139 51 -182 72 l-78 38 -60 -30 c-71
-36 -160 -72 -165 -67 -2 2 27 16 66 32 39 16 69 30 67 31 -2 2 -48 -12 -103
-30 -147 -50 -143 -50 -138 -29 4 12 36 29 98 52 52 18 124 51 162 71 38 21
71 37 74 36 3 -1 52 -25 110 -53z m-265 -154 c0 -22 4 -33 13 -31 7 1 12 -8
12 -22 0 -20 27 -56 37 -48 14 10 23 -5 23 -42 0 -27 6 -48 15 -56 21 -17 29
-6 15 20 -6 12 -9 33 -6 46 5 19 0 30 -20 48 -19 16 -25 27 -18 37 5 8 9 23 9
33 0 11 6 21 13 23 17 6 15 -18 -5 -46 -16 -23 -15 -25 11 -46 22 -17 26 -27
21 -47 -9 -34 8 -64 39 -70 34 -7 56 19 59 69 1 32 5 39 15 30 18 -14 30 1 35
43 l4 35 1 -37 c2 -30 -3 -41 -23 -54 -14 -9 -25 -26 -25 -39 0 -12 -7 -28
-15 -35 -16 -13 -20 -30 -7 -30 5 0 18 9 30 20 12 12 22 17 22 12 0 -5 -10
-17 -22 -26 -15 -11 -19 -19 -11 -22 7 -3 10 -11 7 -18 -7 -19 112 -32 132
-15 12 10 13 9 8 -5 -7 -17 11 -23 19 -6 3 6 4 5 3 -2 -2 -9 -17 -12 -47 -10
-41 3 -43 2 -25 -13 11 -8 15 -15 8 -15 -7 0 -17 9 -24 20 -9 13 -24 20 -46
20 -18 0 -31 -4 -27 -9 3 -5 0 -13 -5 -16 -8 -5 -5 -14 7 -28 17 -20 17 -21 0
-8 -25 20 -33 6 -13 -25 10 -14 15 -28 12 -32 -3 -3 -6 -1 -6 4 0 5 -10 20
-21 34 l-21 25 6 -30 c5 -28 5 -28 -6 -7 -11 22 -48 31 -48 12 0 -10 -56 39
-57 50 0 3 -1 13 -2 23 -1 21 -59 24 -80 5 -11 -11 -12 -10 -6 0 4 7 17 18 29
23 15 6 -1 8 -53 6 -54 -1 -75 2 -77 11 -1 7 0 8 3 2 2 -5 9 -10 14 -10 6 0 8
4 5 9 -4 5 4 7 16 3 19 -5 21 -3 11 9 -10 12 -8 17 7 26 14 10 21 9 30 -2 7
-8 18 -15 25 -15 6 0 20 -9 30 -20 10 -11 24 -20 31 -20 20 0 36 37 25 58 -5
9 -11 35 -13 57 -2 22 -8 38 -13 35 -6 -3 -9 -9 -7 -13 1 -5 -2 -6 -8 -2 -6 3
-8 10 -5 15 3 5 0 12 -5 15 -6 4 -16 17 -21 28 -5 12 -18 37 -29 55 -20 33
-19 57 3 49 7 -2 12 -19 12 -38z m-175 -278 c20 -84 87 -203 154 -277 74 -81
168 -150 188 -139 10 6 10 5 1 -5 -10 -11 -20 -8 -55 15 -24 16 -66 50 -94 77
-28 26 -54 45 -57 42 -8 -8 -48 37 -88 99 -37 57 -47 61 -20 9 41 -81 142
-190 239 -259 54 -39 69 -54 27 -28 -68 41 -151 114 -201 174 -87 105 -130
202 -169 376 l-6 30 34 -34 c23 -21 39 -49 47 -80z"/>
</g>
</svg>
