<?xml version="1.0" encoding="UTF-8"?>
<!DOCTYPE svg PUBLIC "-//W3C//DTD SVG 1.1//EN" "http://www.w3.org/Graphics/SVG/1.1/DTD/svg11.dtd">
<svg xmlns="http://www.w3.org/2000/svg" version="1.1" width="1378px" height="1378px" style="shape-rendering:geometricPrecision; text-rendering:geometricPrecision; image-rendering:optimizeQuality; fill-rule:evenodd; clip-rule:evenodd" xmlns:xlink="http://www.w3.org/1999/xlink">
<g><path style="opacity:1" fill="#fefefe" d="M -0.5,-0.5 C 458.833,-0.5 918.167,-0.5 1377.5,-0.5C 1377.5,458.833 1377.5,918.167 1377.5,1377.5C 918.167,1377.5 458.833,1377.5 -0.5,1377.5C -0.5,918.167 -0.5,458.833 -0.5,-0.5 Z"/></g>
<g><path style="opacity:1" fill="#c5cad0" d="M 722.5,279.5 C 586.793,279.17 451.126,279.503 315.5,280.5C 315.611,279.883 315.944,279.383 316.5,279C 452.001,278.167 587.334,278.334 722.5,279.5 Z"/></g>
<g><path style="opacity:1" fill="#252c39" d="M 722.5,279.5 C 725.189,280.189 726.856,281.856 727.5,284.5C 727.667,333.834 727.5,383.168 727,432.5C 726.833,383.497 726.333,334.497 725.5,285.5C 724.328,285.081 723.328,284.415 722.5,283.5C 587.45,283.024 452.617,282.69 318,282.5C 317.302,283.691 316.469,284.691 315.5,285.5C 313.621,285.393 313.288,285.893 314.5,287C 313.834,466.931 313.167,646.764 312.5,826.5C 312.5,645.833 312.5,465.167 312.5,284.5C 312.5,284.167 312.5,283.833 312.5,283.5C 313.167,282.167 314.167,281.167 315.5,280.5C 451.126,279.503 586.793,279.17 722.5,279.5 Z"/></g>
<g><path style="opacity:1" fill="#283041" d="M 727.5,284.5 C 727.833,284.5 728.167,284.5 728.5,284.5C 728.824,334.875 728.491,385.209 727.5,435.5C 725.786,438.213 723.453,440.213 720.5,441.5C 717.15,441.665 713.817,441.498 710.5,441C 705.954,440.19 705.62,438.857 709.5,437C 708.09,436.632 707.09,435.799 706.5,434.5C 708.219,432.456 709.886,430.456 711.5,428.5C 712.833,428.5 713.5,427.833 713.5,426.5C 714.333,385.669 714.833,344.669 715,303.5C 715.333,305.5 715.667,307.5 716,309.5C 716.186,307.1 716.686,304.766 717.5,302.5C 718.396,301.494 719.062,301.494 719.5,302.5C 718.268,305.3 717.601,308.3 717.5,311.5C 719.083,340.808 719.916,370.141 720,399.5C 720.333,398.833 720.667,398.167 721,397.5C 721.75,360.727 721.583,324.06 720.5,287.5C 704.206,286.477 687.873,286.477 671.5,287.5C 663.73,287.686 656.064,287.019 648.5,285.5C 637.536,286.642 626.536,286.642 615.5,285.5C 599.97,288.108 584.47,288.108 569,285.5C 557.662,288.126 546.329,288.126 535,285.5C 521.742,286.341 508.575,286.341 495.5,285.5C 495.5,286.5 495.5,287.5 495.5,288.5C 498.448,288.777 501.281,288.444 504,287.5C 508.947,289.519 514.114,290.853 519.5,291.5C 518.667,291.833 517.833,292.167 517,292.5C 499.203,292.316 481.369,292.316 463.5,292.5C 463.5,291.5 463.5,290.5 463.5,289.5C 468.741,290.469 473.908,290.802 479,290.5C 480.419,289.54 481.919,288.707 483.5,288C 476.896,286.918 470.229,286.418 463.5,286.5C 436.837,287.167 410.17,287.667 383.5,288C 380.425,289.007 377.258,289.507 374,289.5C 355.961,288.123 337.961,286.456 320,284.5C 318.273,284.646 318.106,285.313 319.5,286.5C 317.775,291.95 316.942,297.616 317,303.5C 316.791,297.419 316.291,291.419 315.5,285.5C 316.469,284.691 317.302,283.691 318,282.5C 452.617,282.69 587.45,283.024 722.5,283.5C 723.328,284.415 724.328,285.081 725.5,285.5C 726.333,334.497 726.833,383.497 727,432.5C 727.5,383.168 727.667,333.834 727.5,284.5 Z"/></g>
<g><path style="opacity:1" fill="#272f3f" d="M 713.5,426.5 C 713.832,382.33 713.499,338.33 712.5,294.5C 583.666,294.167 454.999,294.5 326.5,295.5C 325.85,295.196 325.183,294.863 324.5,294.5C 323.679,297.447 323.179,300.447 323,303.5C 322.833,326 322.667,348.5 322.5,371C 322.955,418.363 323.121,465.863 323,513.5C 323.333,512.167 323.667,510.833 324,509.5C 324.791,550.331 325.625,590.998 326.5,631.5C 326.171,645.677 326.504,659.677 327.5,673.5C 376.834,673.333 426.168,673.5 475.5,674C 477.407,675.122 479.407,675.955 481.5,676.5C 489.309,685.559 489.476,694.893 482,704.5C 456.965,726.99 452.631,752.99 469,782.5C 474.927,792.199 483.094,799.199 493.5,803.5C 497.277,805.29 501.277,806.79 505.5,808C 512.014,808.82 518.347,808.653 524.5,807.5C 525.5,807.5 526.5,807.5 527.5,807.5C 534.907,806.456 541.573,803.789 547.5,799.5C 563.367,790.152 572.533,776.152 575,757.5C 577.091,735.679 569.758,717.679 553,703.5C 546.538,693.823 547.038,684.657 554.5,676C 556.641,675.427 558.641,674.594 560.5,673.5C 611.5,673.5 662.5,673.5 713.5,673.5C 715.379,673.393 715.712,673.893 714.5,675C 712.047,675.738 709.547,676.238 707,676.5C 657.847,675.35 608.68,675.183 559.5,676C 560.328,676.915 561.328,677.581 562.5,678C 561.833,678.333 561.167,678.667 560.5,679C 576.17,680.28 591.837,681.447 607.5,682.5C 607.5,683.5 607.5,684.5 607.5,685.5C 596.854,685.671 596.854,686.171 607.5,687C 592.661,687.169 577.994,687.669 563.5,688.5C 563.232,690.099 563.566,691.432 564.5,692.5C 575.345,702.841 583.178,715.174 588,729.5C 588.837,734.18 589.671,738.846 590.5,743.5C 590.809,752.257 590.142,760.924 588.5,769.5C 580.093,796.24 562.427,813.573 535.5,821.5C 525.521,822.296 515.521,822.629 505.5,822.5C 503.194,822.007 500.861,821.674 498.5,821.5C 479.666,816.823 465.166,806.156 455,789.5C 436.868,753.009 442.368,720.675 471.5,692.5C 472.434,691.432 472.768,690.099 472.5,688.5C 423.833,688.5 375.167,688.5 326.5,688.5C 326.5,737.5 326.5,786.5 326.5,835.5C 325.476,839.362 323.143,842.195 319.5,844C 314.833,844.667 310.167,844.667 305.5,844C 300.057,838.47 294.391,833.137 288.5,828C 259.078,810.714 232.911,814.548 210,839.5C 193.433,863.725 193.433,888.058 210,912.5C 229.221,934.096 252.388,939.596 279.5,929C 288.67,923.838 296.67,917.171 303.5,909C 311.613,904.787 318.779,905.954 325,912.5C 326.009,914.025 326.509,915.692 326.5,917.5C 326.5,965.167 326.5,1012.83 326.5,1060.5C 390.665,1061.33 454.999,1061.83 519.5,1062C 475.487,1062.54 431.487,1063.38 387.5,1064.5C 367.18,1063.71 346.847,1063.21 326.5,1063C 324.418,1058.74 321.085,1056.24 316.5,1055.5C 316.664,1052.81 316.497,1050.15 316,1047.5C 315.639,1054.2 314.972,1060.87 314,1067.5C 313.768,1068.74 313.268,1069.74 312.5,1070.5C 311.833,1070.5 311.5,1070.17 311.5,1069.5C 311.667,1020.83 311.5,972.166 311,923.5C 309.624,924.705 308.458,926.038 307.5,927.5C 288.427,946.077 265.76,952.744 239.5,947.5C 235.767,945.589 231.767,944.256 227.5,943.5C 200.679,931.997 185.679,911.663 182.5,882.5C 182.326,875.465 182.659,868.465 183.5,861.5C 190.651,830.566 209.651,811.066 240.5,803C 248.493,802.5 256.493,802.334 264.5,802.5C 268.755,803.402 273.089,804.402 277.5,805.5C 279.509,807.065 281.843,808.065 284.5,808.5C 292.977,812.32 300.643,817.32 307.5,823.5C 308.5,824.833 309.5,826.167 310.5,827.5C 311.623,828.757 312.289,828.424 312.5,826.5C 313.167,646.764 313.834,466.931 314.5,287C 313.288,285.893 313.621,285.393 315.5,285.5C 316.291,291.419 316.791,297.419 317,303.5C 316.942,297.616 317.775,291.95 319.5,286.5C 318.106,285.313 318.273,284.646 320,284.5C 337.961,286.456 355.961,288.123 374,289.5C 377.258,289.507 380.425,289.007 383.5,288C 410.17,287.667 436.837,287.167 463.5,286.5C 470.229,286.418 476.896,286.918 483.5,288C 481.919,288.707 480.419,289.54 479,290.5C 473.908,290.802 468.741,290.469 463.5,289.5C 463.5,290.5 463.5,291.5 463.5,292.5C 481.369,292.316 499.203,292.316 517,292.5C 517.833,292.167 518.667,291.833 519.5,291.5C 514.114,290.853 508.947,289.519 504,287.5C 501.281,288.444 498.448,288.777 495.5,288.5C 495.5,287.5 495.5,286.5 495.5,285.5C 508.575,286.341 521.742,286.341 535,285.5C 546.329,288.126 557.662,288.126 569,285.5C 584.47,288.108 599.97,288.108 615.5,285.5C 626.536,286.642 637.536,286.642 648.5,285.5C 656.064,287.019 663.73,287.686 671.5,287.5C 687.873,286.477 704.206,286.477 720.5,287.5C 721.583,324.06 721.75,360.727 721,397.5C 720.667,398.167 720.333,398.833 720,399.5C 719.916,370.141 719.083,340.808 717.5,311.5C 717.601,308.3 718.268,305.3 719.5,302.5C 719.062,301.494 718.396,301.494 717.5,302.5C 716.686,304.766 716.186,307.1 716,309.5C 715.667,307.5 715.333,305.5 715,303.5C 714.833,344.669 714.333,385.669 713.5,426.5 Z"/></g>
<g><path style="opacity:1" fill="#fefefe" d="M 712.5,295.5 C 712.832,339.67 712.499,383.67 711.5,427.5C 700.342,415.593 687.009,407.259 671.5,402.5C 665.84,400.239 659.84,399.239 653.5,399.5C 649.203,399.278 645.203,399.945 641.5,401.5C 604.172,410.452 583.839,434.118 580.5,472.5C 580.6,494.169 588.267,512.503 603.5,527.5C 614.941,538.384 628.608,544.717 644.5,546.5C 650.987,547.654 657.654,547.821 664.5,547C 667.851,546.943 670.851,546.109 673.5,544.5C 686.937,540.695 698.27,533.695 707.5,523.5C 709.044,523.297 710.378,522.63 711.5,521.5C 712.5,571.829 712.833,622.162 712.5,672.5C 661.664,672.168 610.997,672.501 560.5,673.5C 558.641,674.594 556.641,675.427 554.5,676C 547.038,684.657 546.538,693.823 553,703.5C 569.758,717.679 577.091,735.679 575,757.5C 572.533,776.152 563.367,790.152 547.5,799.5C 541.409,802.204 535.076,804.371 528.5,806C 527.944,806.383 527.611,806.883 527.5,807.5C 526.5,807.5 525.5,807.5 524.5,807.5C 519.489,807.666 514.489,807.499 509.5,807C 504.239,805.538 498.906,804.372 493.5,803.5C 483.094,799.199 474.927,792.199 469,782.5C 452.631,752.99 456.965,726.99 482,704.5C 489.476,694.893 489.309,685.559 481.5,676.5C 480.884,674.583 479.55,673.416 477.5,673C 427.501,672.5 377.501,672.333 327.5,672.5C 327.5,546.833 327.5,421.167 327.5,295.5C 455.833,295.5 584.167,295.5 712.5,295.5 Z"/></g>
<g><path style="opacity:1" fill="#71757e" d="M 712.5,294.5 C 713.499,338.33 713.832,382.33 713.5,426.5C 713.5,427.833 712.833,428.5 711.5,428.5C 711.5,428.167 711.5,427.833 711.5,427.5C 712.499,383.67 712.832,339.67 712.5,295.5C 712.5,295.167 712.5,294.833 712.5,294.5 Z"/></g>
<g><path style="opacity:1" fill="#dcdfe4" d="M 312.5,283.5 C 312.5,283.833 312.5,284.167 312.5,284.5C 311.833,465.5 311.167,646.5 310.5,827.5C 309.5,826.167 308.5,824.833 307.5,823.5C 308.397,822.402 309.23,822.402 310,823.5C 309.834,643.164 310.668,463.164 312.5,283.5 Z"/></g>
<g><path style="opacity:1" fill="#3b3f4a" d="M 312.5,284.5 C 312.5,465.167 312.5,645.833 312.5,826.5C 312.289,828.424 311.623,828.757 310.5,827.5C 311.167,646.5 311.833,465.5 312.5,284.5 Z"/></g>
<g><path style="opacity:1" fill="#232c39" d="M 326.5,295.5 C 326.5,407.5 326.5,519.5 326.5,631.5C 325.625,590.998 324.791,550.331 324,509.5C 323.667,510.833 323.333,512.167 323,513.5C 323.121,465.863 322.955,418.363 322.5,371C 322.667,348.5 322.833,326 323,303.5C 323.179,300.447 323.679,297.447 324.5,294.5C 325.183,294.863 325.85,295.196 326.5,295.5 Z"/></g>
<g><path style="opacity:1" fill="#bfc4ca" d="M 671.5,402.5 C 661.518,401.743 651.518,401.41 641.5,401.5C 645.203,399.945 649.203,399.278 653.5,399.5C 659.84,399.239 665.84,400.239 671.5,402.5 Z"/></g>
<g><path style="opacity:1" fill="#ecf0f5" d="M 728.5,284.5 C 729.665,334.332 729.832,384.332 729,434.5C 728.617,435.056 728.117,435.389 727.5,435.5C 728.491,385.209 728.824,334.875 728.5,284.5 Z"/></g>
<g><path style="opacity:1" fill="#262d3d" d="M 641.5,401.5 C 651.518,401.41 661.518,401.743 671.5,402.5C 687.009,407.259 700.342,415.593 711.5,427.5C 711.5,427.833 711.5,428.167 711.5,428.5C 709.886,430.456 708.219,432.456 706.5,434.5C 707.09,435.799 708.09,436.632 709.5,437C 705.62,438.857 705.954,440.19 710.5,441C 713.817,441.498 717.15,441.665 720.5,441.5C 713.7,444.475 707.033,443.975 700.5,440C 690.827,427.33 678.16,419.497 662.5,416.5C 655.011,415.344 647.345,415.178 639.5,416C 638.429,416.852 637.429,417.685 636.5,418.5C 622.176,423.579 611.009,432.579 603,445.5C 589.593,473.357 594.093,497.857 616.5,519C 620.739,522.09 625.072,524.923 629.5,527.5C 629.302,530.374 627.302,531.707 623.5,531.5C 623.5,532.5 623.5,533.5 623.5,534.5C 622.167,534.5 620.833,534.5 619.5,534.5C 619.318,529.206 618.818,529.206 618,534.5C 617.395,532.519 616.395,532.185 615,533.5C 613.56,531.954 611.727,531.121 609.5,531C 610.357,530.311 611.023,529.478 611.5,528.5C 608.914,527.52 606.247,527.187 603.5,527.5C 588.267,512.503 580.6,494.169 580.5,472.5C 583.839,434.118 604.172,410.452 641.5,401.5 Z"/></g>
<g><path style="opacity:1" fill="#4f525c" d="M 662.5,416.5 C 653.68,415.998 645.014,416.664 636.5,418.5C 637.429,417.685 638.429,416.852 639.5,416C 647.345,415.178 655.011,415.344 662.5,416.5 Z"/></g>
<g><path style="opacity:1" fill="#8b8e93" d="M 679.5,525.5 C 679.027,526.906 678.027,527.573 676.5,527.5C 676.973,526.094 677.973,525.427 679.5,525.5 Z"/></g>
<g><path style="opacity:1" fill="#a6abb2" d="M 712.5,294.5 C 712.5,294.833 712.5,295.167 712.5,295.5C 584.167,295.5 455.833,295.5 327.5,295.5C 327.5,421.167 327.5,546.833 327.5,672.5C 327.5,672.833 327.5,673.167 327.5,673.5C 326.504,659.677 326.171,645.677 326.5,631.5C 326.5,519.5 326.5,407.5 326.5,295.5C 454.999,294.5 583.666,294.167 712.5,294.5 Z"/></g>
<g><path style="opacity:1" fill="#9d9da8" d="M 932.5,540.5 C 935.152,540.41 937.485,541.076 939.5,542.5C 936.848,542.59 934.515,541.924 932.5,540.5 Z"/></g>
<g><path style="opacity:1" fill="#c9ccd2" d="M 941.5,542.5 C 945.226,543.191 948.893,544.191 952.5,545.5C 952.863,546.183 953.196,546.85 953.5,547.5C 949.261,546.204 945.261,544.538 941.5,542.5 Z"/></g>
<g><path style="opacity:1" fill="#a4a7af" d="M 673.5,544.5 C 670.851,546.109 667.851,546.943 664.5,547C 657.654,547.821 650.987,547.654 644.5,546.5C 654.248,546.812 663.915,546.145 673.5,544.5 Z"/></g>
<g><path style="opacity:1" fill="#fefefe" d="M 971.5,640.5 C 966.954,647.225 961.788,653.558 956,659.5C 951.073,668.04 951.406,676.373 957,684.5C 958.271,685.883 959.771,686.883 961.5,687.5C 1011.5,688.167 1061.5,688.833 1111.5,689.5C 1111.5,812.833 1111.5,936.167 1111.5,1059.5C 984.167,1059.5 856.833,1059.5 729.5,1059.5C 728.838,1013.49 729.505,967.821 731.5,922.5C 755.462,947.824 784.129,954.991 817.5,944C 856.118,924.588 870.285,893.754 860,851.5C 855.832,840.482 849.665,830.816 841.5,822.5C 839.037,818.7 835.704,816.033 831.5,814.5C 807.449,800.708 782.449,798.875 756.5,809C 752.664,811.084 748.997,813.417 745.5,816C 740.274,820.734 734.941,825.234 729.5,829.5C 729.5,782.833 729.5,736.167 729.5,689.5C 780.168,689.667 830.834,689.5 881.5,689C 882.056,688.617 882.389,688.117 882.5,687.5C 891.308,679.879 892.808,670.879 887,660.5C 883.268,656.938 879.768,653.271 876.5,649.5C 856.579,619.456 859.579,591.956 885.5,567C 901.884,555.156 919.884,552.156 939.5,558C 968.771,570.709 981.271,592.875 977,624.5C 975.656,630.033 973.823,635.366 971.5,640.5 Z"/></g>
<g><path style="opacity:1" fill="#212733" d="M 713.5,672.5 C 713.5,621.833 713.5,571.167 713.5,520.5C 713.81,519.262 714.31,519.262 715,520.5C 715.053,527.34 715.386,534.34 716,541.5C 716.189,578.347 716.689,615.181 717.5,652C 716.833,657.667 716.167,663.333 715.5,669C 715.392,670.681 714.725,671.848 713.5,672.5 Z"/></g>
<g><path style="opacity:1" fill="#252c3b" d="M 932.5,540.5 C 934.515,541.924 936.848,542.59 939.5,542.5C 940.167,542.5 940.833,542.5 941.5,542.5C 945.261,544.538 949.261,546.204 953.5,547.5C 985.071,565.316 997.904,592.316 992,628.5C 990.316,634.391 988.149,640.057 985.5,645.5C 984.5,645.5 983.5,645.5 982.5,645.5C 982.719,646.675 982.386,647.675 981.5,648.5C 979.742,649.128 978.242,650.128 977,651.5C 976.667,651.167 976.333,650.833 976,650.5C 975.667,652.5 975.333,654.5 975,656.5C 973,655.167 971,655.167 969,656.5C 968.691,654.609 969.525,653.275 971.5,652.5C 969.43,649.486 969.764,646.486 972.5,643.5C 971.873,642.583 971.539,641.583 971.5,640.5C 973.823,635.366 975.656,630.033 977,624.5C 981.271,592.875 968.771,570.709 939.5,558C 919.884,552.156 901.884,555.156 885.5,567C 859.579,591.956 856.579,619.456 876.5,649.5C 876.815,654.335 874.815,657.668 870.5,659.5C 869.548,661.045 869.215,662.712 869.5,664.5C 853,646.899 846.167,625.899 849,601.5C 855.531,569.303 874.698,549.136 906.5,541C 915.16,540.5 923.827,540.334 932.5,540.5 Z"/></g>
<g><path style="opacity:1" fill="#999fa5" d="M 713.5,520.5 C 713.5,571.167 713.5,621.833 713.5,672.5C 713.5,672.833 713.5,673.167 713.5,673.5C 662.5,673.5 611.5,673.5 560.5,673.5C 610.997,672.501 661.664,672.168 712.5,672.5C 712.833,622.162 712.5,571.829 711.5,521.5C 710.378,522.63 709.044,523.297 707.5,523.5C 708.687,521.025 710.687,520.025 713.5,520.5 Z"/></g>
<g><path style="opacity:1" fill="#293142" d="M 728.5,672.5 C 777.33,673.499 826.33,673.832 875.5,673.5C 875.737,672.209 875.404,671.209 874.5,670.5C 872.833,668.5 871.167,666.5 869.5,664.5C 869.215,662.712 869.548,661.045 870.5,659.5C 874.815,657.668 876.815,654.335 876.5,649.5C 879.768,653.271 883.268,656.938 887,660.5C 892.808,670.879 891.308,679.879 882.5,687.5C 831.209,688.491 779.875,688.824 728.5,688.5C 728.168,735.67 728.501,782.67 729.5,829.5C 734.941,825.234 740.274,820.734 745.5,816C 748.997,813.417 752.664,811.084 756.5,809C 782.449,798.875 807.449,800.708 831.5,814.5C 834.539,817.54 837.873,820.206 841.5,822.5C 849.665,830.816 855.832,840.482 860,851.5C 870.285,893.754 856.118,924.588 817.5,944C 784.129,954.991 755.462,947.824 731.5,922.5C 730.791,921.596 729.791,921.263 728.5,921.5C 728.5,967.833 728.5,1014.17 728.5,1060.5C 856.5,1060.5 984.5,1060.5 1112.5,1060.5C 985.001,1061.33 857.334,1061.83 729.5,1062C 731.433,1062.25 733.266,1062.75 735,1063.5C 773.272,1062.71 811.605,1063.05 850,1064.5C 936.43,1063.53 1022.93,1063.53 1109.5,1064.5C 1109,1065.88 1108,1066.55 1106.5,1066.5C 1104.53,1065.67 1102.53,1065.5 1100.5,1066C 1103.1,1066.92 1105.77,1067.59 1108.5,1068C 1096.09,1068.96 1083.75,1070.46 1071.5,1072.5C 1026.67,1073.17 982.002,1073.83 937.5,1074.5C 729.95,1074.66 522.616,1074.5 315.5,1074C 316.167,1073.33 316.833,1072.67 317.5,1072C 315.866,1071.51 314.199,1071.34 312.5,1071.5C 312.5,1071.17 312.5,1070.83 312.5,1070.5C 313.268,1069.74 313.768,1068.74 314,1067.5C 314.972,1060.87 315.639,1054.2 316,1047.5C 316.497,1050.15 316.664,1052.81 316.5,1055.5C 321.085,1056.24 324.418,1058.74 326.5,1063C 346.847,1063.21 367.18,1063.71 387.5,1064.5C 431.487,1063.38 475.487,1062.54 519.5,1062C 454.999,1061.83 390.665,1061.33 326.5,1060.5C 455.5,1060.5 584.5,1060.5 713.5,1060.5C 650.335,1061.33 587.001,1061.83 523.5,1062C 587.873,1062.49 652.04,1062.66 716,1062.5C 716.877,1055.52 717.711,1048.35 718.5,1041C 716.699,1027.3 715.699,1013.47 715.5,999.5C 715.341,971.706 715.674,944.04 716.5,916.5C 716.043,915.702 715.376,915.369 714.5,915.5C 715.882,912.606 717.882,910.106 720.5,908C 728.193,905.514 735.527,906.181 742.5,910C 748.186,916.868 754.853,922.368 762.5,926.5C 766.715,929.438 771.382,931.605 776.5,933C 784.677,933.823 792.677,933.656 800.5,932.5C 801.167,932.5 801.833,932.5 802.5,932.5C 805.067,932.279 807.401,931.612 809.5,930.5C 834.672,920.685 847.672,902.185 848.5,875C 847.027,850.205 835.027,832.705 812.5,822.5C 811.569,818.718 809.236,816.885 805.5,817C 808.063,817.763 808.063,818.263 805.5,818.5C 801.024,816.689 796.357,815.689 791.5,815.5C 788.41,815.522 785.743,816.188 783.5,817.5C 780.171,817.215 777.171,817.882 774.5,819.5C 767.899,821.088 761.899,823.921 756.5,828C 750.5,833.333 744.5,838.667 738.5,844C 733.254,845.506 727.921,845.839 722.5,845C 720.416,844.303 718.749,843.136 717.5,841.5C 719.048,841.179 719.715,840.179 719.5,838.5C 718.5,838.5 717.5,838.5 716.5,838.5C 715.167,812.506 715.167,786.506 716.5,760.5C 716.076,752.631 715.409,744.798 714.5,737C 715.507,735.48 716.173,733.813 716.5,732C 716.125,717.922 715.792,703.922 715.5,690C 716.167,689.333 716.833,688.667 717.5,688C 715.934,687.235 714.601,687.402 713.5,688.5C 663.5,688.5 613.5,688.5 563.5,688.5C 577.994,687.669 592.661,687.169 607.5,687C 596.854,686.171 596.854,685.671 607.5,685.5C 607.5,684.5 607.5,683.5 607.5,682.5C 591.837,681.447 576.17,680.28 560.5,679C 561.167,678.667 561.833,678.333 562.5,678C 561.328,677.581 560.328,676.915 559.5,676C 608.68,675.183 657.847,675.35 707,676.5C 709.547,676.238 712.047,675.738 714.5,675C 715.712,673.893 715.379,673.393 713.5,673.5C 713.5,673.167 713.5,672.833 713.5,672.5C 714.725,671.848 715.392,670.681 715.5,669C 716.167,663.333 716.833,657.667 717.5,652C 716.689,615.181 716.189,578.347 716,541.5C 715.386,534.34 715.053,527.34 715,520.5C 714.31,519.262 713.81,519.262 713.5,520.5C 710.687,520.025 708.687,521.025 707.5,523.5C 698.27,533.695 686.937,540.695 673.5,544.5C 663.915,546.145 654.248,546.812 644.5,546.5C 628.608,544.717 614.941,538.384 603.5,527.5C 606.247,527.187 608.914,527.52 611.5,528.5C 611.023,529.478 610.357,530.311 609.5,531C 611.727,531.121 613.56,531.954 615,533.5C 616.395,532.185 617.395,532.519 618,534.5C 618.818,529.206 619.318,529.206 619.5,534.5C 620.833,534.5 622.167,534.5 623.5,534.5C 623.5,533.5 623.5,532.5 623.5,531.5C 627.302,531.707 629.302,530.374 629.5,527.5C 645.165,534.119 660.832,534.119 676.5,527.5C 678.027,527.573 679.027,526.906 679.5,525.5C 687.953,521.722 694.953,516.056 700.5,508.5C 708.039,503.414 715.706,503.247 723.5,508C 725.378,509.543 726.878,511.376 728,513.5C 728.5,566.499 728.667,619.499 728.5,672.5 Z"/></g>
<g><path style="opacity:1" fill="#bec3c9" d="M 327.5,673.5 C 327.5,673.167 327.5,672.833 327.5,672.5C 377.501,672.333 427.501,672.5 477.5,673C 479.55,673.416 480.884,674.583 481.5,676.5C 479.407,675.955 477.407,675.122 475.5,674C 426.168,673.5 376.834,673.333 327.5,673.5 Z"/></g>
<g><path style="opacity:1" fill="#bbc1c7" d="M 874.5,670.5 C 875.404,671.209 875.737,672.209 875.5,673.5C 826.33,673.832 777.33,673.499 728.5,672.5C 777.511,673.162 826.178,672.495 874.5,670.5 Z"/></g>
<g><path style="opacity:1" fill="#282f3d" d="M 967.5,673.5 C 1019.57,673.171 1071.57,673.505 1123.5,674.5C 1123.63,675.239 1123.46,675.906 1123,676.5C 1070.61,676.804 1018.11,676.471 965.5,675.5C 964.539,672.672 964.705,670.005 966,667.5C 966.191,669.708 966.691,671.708 967.5,673.5 Z"/></g>
<g><path style="opacity:1" fill="#283044" d="M 390.5,675.5 C 418.835,675.333 447.169,675.5 475.5,676C 477.002,676.583 478.335,677.416 479.5,678.5C 476.862,678.461 473.695,679.127 470,680.5C 457.973,679.316 445.973,679.649 434,681.5C 414.103,680.412 394.27,680.412 374.5,681.5C 367.883,680.704 361.217,680.204 354.5,680C 353.376,679.751 352.376,679.251 351.5,678.5C 364.579,678.163 377.579,677.163 390.5,675.5 Z"/></g>
<g><path style="opacity:1" fill="#55585f" d="M 961.5,687.5 C 1011.83,687.5 1062.17,687.5 1112.5,687.5C 1112.5,688.167 1112.5,688.833 1112.5,689.5C 1112.17,689.5 1111.83,689.5 1111.5,689.5C 1061.5,688.833 1011.5,688.167 961.5,687.5 Z"/></g>
<g><path style="opacity:1" fill="#b9bdc3" d="M 471.5,692.5 C 471.5,691.5 471.5,690.5 471.5,689.5C 423.5,689.5 375.5,689.5 327.5,689.5C 327.832,738.336 327.499,787.003 326.5,835.5C 327.499,787.003 327.832,738.336 327.5,689.5C 375.5,689.5 423.5,689.5 471.5,689.5C 471.5,690.5 471.5,691.5 471.5,692.5 Z"/></g>
<g><path style="opacity:1" fill="#c1c5c9" d="M 563.5,688.5 C 613.5,688.5 663.5,688.5 713.5,688.5C 713.5,737.167 713.5,785.833 713.5,834.5C 712.501,786.336 712.168,738.003 712.5,689.5C 663.167,689.5 613.833,689.5 564.5,689.5C 564.5,690.5 564.5,691.5 564.5,692.5C 563.566,691.432 563.232,690.099 563.5,688.5 Z"/></g>
<g><path style="opacity:1" fill="#fefefe" d="M 471.5,692.5 C 442.368,720.675 436.868,753.009 455,789.5C 465.166,806.156 479.666,816.823 498.5,821.5C 500.515,822.924 502.848,823.59 505.5,823.5C 513.507,823.666 521.507,823.5 529.5,823C 531.708,822.809 533.708,822.309 535.5,821.5C 562.427,813.573 580.093,796.24 588.5,769.5C 589.232,768.192 590.066,766.858 591,765.5C 591.822,757.988 591.655,750.655 590.5,743.5C 589.671,738.846 588.837,734.18 588,729.5C 583.178,715.174 575.345,702.841 564.5,692.5C 564.5,691.5 564.5,690.5 564.5,689.5C 613.833,689.5 663.167,689.5 712.5,689.5C 712.168,738.003 712.501,786.336 713.5,834.5C 714.089,837.276 715.422,839.61 717.5,841.5C 718.749,843.136 720.416,844.303 722.5,845C 727.921,845.839 733.254,845.506 738.5,844C 744.5,838.667 750.5,833.333 756.5,828C 761.899,823.921 767.899,821.088 774.5,819.5C 781.465,818.659 788.465,818.326 795.5,818.5C 801.416,818.873 807.083,820.207 812.5,822.5C 835.027,832.705 847.027,850.205 848.5,875C 847.672,902.185 834.672,920.685 809.5,930.5C 806.772,930.171 804.438,930.837 802.5,932.5C 801.833,932.5 801.167,932.5 800.5,932.5C 792.826,932.666 785.159,932.5 777.5,932C 774.221,931.027 771.221,929.527 768.5,927.5C 766.547,926.844 764.547,926.511 762.5,926.5C 754.853,922.368 748.186,916.868 742.5,910C 735.527,906.181 728.193,905.514 720.5,908C 717.882,910.106 715.882,912.606 714.5,915.5C 713.596,916.209 713.263,917.209 713.5,918.5C 712.501,965.33 712.168,1012.33 712.5,1059.5C 584.167,1059.5 455.833,1059.5 327.5,1059.5C 327.832,1012 327.499,964.664 326.5,917.5C 326.509,915.692 326.009,914.025 325,912.5C 318.779,905.954 311.613,904.787 303.5,909C 296.67,917.171 288.67,923.838 279.5,929C 252.388,939.596 229.221,934.096 210,912.5C 193.433,888.058 193.433,863.725 210,839.5C 232.911,814.548 259.078,810.714 288.5,828C 294.391,833.137 300.057,838.47 305.5,844C 310.167,844.667 314.833,844.667 319.5,844C 323.143,842.195 325.476,839.362 326.5,835.5C 327.499,787.003 327.832,738.336 327.5,689.5C 375.5,689.5 423.5,689.5 471.5,689.5C 471.5,690.5 471.5,691.5 471.5,692.5 Z"/></g>
<g><path style="opacity:1" fill="#262e3f" d="M 971.5,640.5 C 971.539,641.583 971.873,642.583 972.5,643.5C 969.764,646.486 969.43,649.486 971.5,652.5C 969.525,653.275 968.691,654.609 969,656.5C 971,655.167 973,655.167 975,656.5C 975.333,654.5 975.667,652.5 976,650.5C 976.333,650.833 976.667,651.167 977,651.5C 978.242,650.128 979.742,649.128 981.5,648.5C 982.386,647.675 982.719,646.675 982.5,645.5C 983.5,645.5 984.5,645.5 985.5,645.5C 980.908,654.327 975.075,662.327 968,669.5C 967.51,670.793 967.343,672.127 967.5,673.5C 966.691,671.708 966.191,669.708 966,667.5C 964.705,670.005 964.539,672.672 965.5,675.5C 1018.11,676.471 1070.61,676.804 1123,676.5C 1123.46,675.906 1123.63,675.239 1123.5,674.5C 1125.26,675.262 1126.26,676.596 1126.5,678.5C 1125.17,693.819 1124.5,709.485 1124.5,725.5C 1125.04,841.071 1125.04,956.404 1124.5,1071.5C 1123.07,1071.88 1122.24,1072.88 1122,1074.5C 1060.71,1074.49 999.208,1074.49 937.5,1074.5C 982.002,1073.83 1026.67,1073.17 1071.5,1072.5C 1083.75,1070.46 1096.09,1068.96 1108.5,1068C 1105.77,1067.59 1103.1,1066.92 1100.5,1066C 1102.53,1065.5 1104.53,1065.67 1106.5,1066.5C 1108,1066.55 1109,1065.88 1109.5,1064.5C 1022.93,1063.53 936.43,1063.53 850,1064.5C 811.605,1063.05 773.272,1062.71 735,1063.5C 733.266,1062.75 731.433,1062.25 729.5,1062C 857.334,1061.83 985.001,1061.33 1112.5,1060.5C 1112.5,1060.17 1112.5,1059.83 1112.5,1059.5C 1114.12,1059.21 1115.12,1058.21 1115.5,1056.5C 1114.17,995.642 1113.5,934.642 1113.5,873.5C 1113.5,812.46 1113.84,751.46 1114.5,690.5C 1114.06,689.261 1113.39,688.261 1112.5,687.5C 1062.17,687.5 1011.83,687.5 961.5,687.5C 959.771,686.883 958.271,685.883 957,684.5C 951.406,676.373 951.073,668.04 956,659.5C 961.788,653.558 966.954,647.225 971.5,640.5 Z"/></g>
<g><path style="opacity:1" fill="#cdd1d7" d="M 882.5,687.5 C 882.389,688.117 882.056,688.617 881.5,689C 830.834,689.5 780.168,689.667 729.5,689.5C 729.5,736.167 729.5,782.833 729.5,829.5C 728.501,782.67 728.168,735.67 728.5,688.5C 779.875,688.824 831.209,688.491 882.5,687.5 Z"/></g>
<g><path style="opacity:1" fill="#222833" d="M 717.5,841.5 C 715.422,839.61 714.089,837.276 713.5,834.5C 713.5,785.833 713.5,737.167 713.5,688.5C 714.601,687.402 715.934,687.235 717.5,688C 716.833,688.667 716.167,689.333 715.5,690C 715.792,703.922 716.125,717.922 716.5,732C 716.173,733.813 715.507,735.48 714.5,737C 715.409,744.798 716.076,752.631 716.5,760.5C 715.167,786.506 715.167,812.506 716.5,838.5C 717.5,838.5 718.5,838.5 719.5,838.5C 719.715,840.179 719.048,841.179 717.5,841.5 Z"/></g>
<g><path style="opacity:1" fill="#c7ced5" d="M 590.5,743.5 C 591.655,750.655 591.822,757.988 591,765.5C 590.066,766.858 589.232,768.192 588.5,769.5C 590.142,760.924 590.809,752.257 590.5,743.5 Z"/></g>
<g><path style="opacity:1" fill="#c4c8cf" d="M 264.5,802.5 C 269.312,801.965 273.645,802.965 277.5,805.5C 273.089,804.402 268.755,803.402 264.5,802.5 Z"/></g>
<g><path style="opacity:1" fill="#d4d9e0" d="M 547.5,799.5 C 541.573,803.789 534.907,806.456 527.5,807.5C 527.611,806.883 527.944,806.383 528.5,806C 535.076,804.371 541.409,802.204 547.5,799.5 Z"/></g>
<g><path style="opacity:1" fill="#adb1b7" d="M 277.5,805.5 C 280.491,805.166 282.824,806.166 284.5,808.5C 281.843,808.065 279.509,807.065 277.5,805.5 Z"/></g>
<g><path style="opacity:1" fill="#c5c9d1" d="M 493.5,803.5 C 498.906,804.372 504.239,805.538 509.5,807C 514.489,807.499 519.489,807.666 524.5,807.5C 518.347,808.653 512.014,808.82 505.5,808C 501.277,806.79 497.277,805.29 493.5,803.5 Z"/></g>
<g><path style="opacity:1" fill="#c2c5ca" d="M 831.5,814.5 C 835.704,816.033 839.037,818.7 841.5,822.5C 837.873,820.206 834.539,817.54 831.5,814.5 Z"/></g>
<g><path style="opacity:1" fill="#3a414e" d="M 812.5,822.5 C 807.083,820.207 801.416,818.873 795.5,818.5C 791.702,817.517 787.702,817.183 783.5,817.5C 785.743,816.188 788.41,815.522 791.5,815.5C 796.357,815.689 801.024,816.689 805.5,818.5C 808.063,818.263 808.063,817.763 805.5,817C 809.236,816.885 811.569,818.718 812.5,822.5 Z"/></g>
<g><path style="opacity:1" fill="#959aa3" d="M 783.5,817.5 C 787.702,817.183 791.702,817.517 795.5,818.5C 788.465,818.326 781.465,818.659 774.5,819.5C 777.171,817.882 780.171,817.215 783.5,817.5 Z"/></g>
<g><path style="opacity:1" fill="#82868f" d="M 498.5,821.5 C 500.861,821.674 503.194,822.007 505.5,822.5C 505.5,822.833 505.5,823.167 505.5,823.5C 502.848,823.59 500.515,822.924 498.5,821.5 Z"/></g>
<g><path style="opacity:1" fill="#4c515c" d="M 535.5,821.5 C 533.708,822.309 531.708,822.809 529.5,823C 521.507,823.5 513.507,823.666 505.5,823.5C 505.5,823.167 505.5,822.833 505.5,822.5C 515.521,822.629 525.521,822.296 535.5,821.5 Z"/></g>
<g><path style="opacity:1" fill="#1e2631" d="M 1112.5,687.5 C 1113.39,688.261 1114.06,689.261 1114.5,690.5C 1113.84,751.46 1113.5,812.46 1113.5,873.5C 1113.5,934.642 1114.17,995.642 1115.5,1056.5C 1115.12,1058.21 1114.12,1059.21 1112.5,1059.5C 1112.5,936.167 1112.5,812.833 1112.5,689.5C 1112.5,688.833 1112.5,688.167 1112.5,687.5 Z"/></g>
<g><path style="opacity:1" fill="#2c323f" d="M 1126.5,678.5 C 1127.83,809.5 1127.83,940.5 1126.5,1071.5C 1125.83,1071.5 1125.17,1071.5 1124.5,1071.5C 1125.04,956.404 1125.04,841.071 1124.5,725.5C 1124.5,709.485 1125.17,693.819 1126.5,678.5 Z"/></g>
<g><path style="opacity:1" fill="#c2c6ca" d="M 183.5,861.5 C 182.659,868.465 182.326,875.465 182.5,882.5C 181.835,879.686 181.502,876.686 181.5,873.5C 181.278,869.203 181.945,865.203 183.5,861.5 Z"/></g>
<g><path style="opacity:1" fill="#6a6f78" d="M 227.5,943.5 C 231.767,944.256 235.767,945.589 239.5,947.5C 235.085,947.139 231.085,945.806 227.5,943.5 Z"/></g>
<g><path style="opacity:1" fill="#e8ecf1" d="M 311.5,1069.5 C 310.501,1022.34 310.168,975.003 310.5,927.5C 309.5,927.5 308.5,927.5 307.5,927.5C 308.458,926.038 309.624,924.705 311,923.5C 311.5,972.166 311.667,1020.83 311.5,1069.5 Z"/></g>
<g><path style="opacity:1" fill="#b9bdc4" d="M 326.5,917.5 C 327.499,964.664 327.832,1012 327.5,1059.5C 455.833,1059.5 584.167,1059.5 712.5,1059.5C 712.168,1012.33 712.501,965.33 713.5,918.5C 713.5,965.833 713.5,1013.17 713.5,1060.5C 584.5,1060.5 455.5,1060.5 326.5,1060.5C 326.5,1012.83 326.5,965.167 326.5,917.5 Z"/></g>
<g><path style="opacity:1" fill="#bac0c7" d="M 1111.5,689.5 C 1111.83,689.5 1112.17,689.5 1112.5,689.5C 1112.5,812.833 1112.5,936.167 1112.5,1059.5C 1112.5,1059.83 1112.5,1060.17 1112.5,1060.5C 984.5,1060.5 856.5,1060.5 728.5,1060.5C 728.5,1014.17 728.5,967.833 728.5,921.5C 729.791,921.263 730.791,921.596 731.5,922.5C 729.505,967.821 728.838,1013.49 729.5,1059.5C 856.833,1059.5 984.167,1059.5 1111.5,1059.5C 1111.5,936.167 1111.5,812.833 1111.5,689.5 Z"/></g>
<g><path style="opacity:1" fill="#caced5" d="M 762.5,926.5 C 764.547,926.511 766.547,926.844 768.5,927.5C 771.221,929.527 774.221,931.027 777.5,932C 785.159,932.5 792.826,932.666 800.5,932.5C 792.677,933.656 784.677,933.823 776.5,933C 771.382,931.605 766.715,929.438 762.5,926.5 Z"/></g>
<g><path style="opacity:1" fill="#abafb8" d="M 809.5,930.5 C 807.401,931.612 805.067,932.279 802.5,932.5C 804.438,930.837 806.772,930.171 809.5,930.5 Z"/></g>
<g><path style="opacity:1" fill="#212834" d="M 714.5,915.5 C 715.376,915.369 716.043,915.702 716.5,916.5C 715.674,944.04 715.341,971.706 715.5,999.5C 715.699,1013.47 716.699,1027.3 718.5,1041C 717.711,1048.35 716.877,1055.52 716,1062.5C 652.04,1062.66 587.873,1062.49 523.5,1062C 587.001,1061.83 650.335,1061.33 713.5,1060.5C 713.5,1013.17 713.5,965.833 713.5,918.5C 713.263,917.209 713.596,916.209 714.5,915.5 Z"/></g>
<g><path style="opacity:1" fill="#494f5a" d="M 312.5,1071.5 C 314.199,1071.34 315.866,1071.51 317.5,1072C 316.833,1072.67 316.167,1073.33 315.5,1074C 522.616,1074.5 729.95,1074.66 937.5,1074.5C 999.208,1074.49 1060.71,1074.49 1122,1074.5C 1122.24,1072.88 1123.07,1071.88 1124.5,1071.5C 1125.17,1071.5 1125.83,1071.5 1126.5,1071.5C 1125.37,1073.13 1124.04,1074.63 1122.5,1076C 853.833,1076.67 585.167,1076.67 316.5,1076C 314.816,1074.79 313.483,1073.29 312.5,1071.5 Z"/></g>
</svg>
