<?xml version="1.0" encoding="UTF-8"?>
<!DOCTYPE svg PUBLIC "-//W3C//DTD SVG 1.1//EN" "http://www.w3.org/Graphics/SVG/1.1/DTD/svg11.dtd">
<svg xmlns="http://www.w3.org/2000/svg" version="1.1" width="1292px" height="1292px" style="shape-rendering:geometricPrecision; text-rendering:geometricPrecision; image-rendering:optimizeQuality; fill-rule:evenodd; clip-rule:evenodd" xmlns:xlink="http://www.w3.org/1999/xlink">
<g><path style="opacity:1" fill="#fefefe" d="M -0.5,-0.5 C 430.167,-0.5 860.833,-0.5 1291.5,-0.5C 1291.5,430.167 1291.5,860.833 1291.5,1291.5C 860.833,1291.5 430.167,1291.5 -0.5,1291.5C -0.5,860.833 -0.5,430.167 -0.5,-0.5 Z"/></g>
<g><path style="opacity:1" fill="#1e1e1e" d="M 961.5,743.5 C 960.419,746.627 959.753,749.96 959.5,753.5C 958.335,761.824 957.169,770.157 956,778.5C 951.332,792.753 941.499,799.419 926.5,798.5C 918.085,798.15 909.751,797.15 901.5,795.5C 900.097,808.863 898.43,822.196 896.5,835.5C 895.566,836.568 895.232,837.901 895.5,839.5C 897.415,839.784 899.081,839.451 900.5,838.5C 913.504,836.203 924.67,839.536 934,848.5C 935.586,850.67 936.92,853.004 938,855.5C 939.694,869.753 940.694,884.086 941,898.5C 941.824,918.166 942.157,937.832 942,957.5C 938.833,966 933,971.833 924.5,975C 907.528,976.313 890.528,977.479 873.5,978.5C 861.972,978.436 850.638,979.103 839.5,980.5C 820.754,982.723 809.254,974.723 805,956.5C 804.285,946.174 803.785,935.841 803.5,925.5C 690.127,933.798 576.794,942.465 463.5,951.5C 463.94,967.89 463.44,984.224 462,1000.5C 457.77,1012.73 449.27,1019.9 436.5,1022C 396.506,1023.24 356.506,1023.57 316.5,1023C 302.641,1018.13 295.141,1008.29 294,993.5C 293.172,955.167 292.838,916.834 293,878.5C 296.856,866.142 305.022,858.475 317.5,855.5C 327.5,855.5 337.5,855.5 347.5,855.5C 347.802,852.941 347.468,850.607 346.5,848.5C 344.351,818.509 342.184,788.509 340,758.5C 327.916,758.39 315.749,758.223 303.5,758C 295.099,754.595 289.933,748.428 288,739.5C 287.326,718.66 286.493,697.827 285.5,677C 284.386,663.885 289.72,654.552 301.5,649C 311.086,647.58 320.753,647.08 330.5,647.5C 329.831,612.806 328.498,578.139 326.5,543.5C 326.5,538.5 326.5,533.5 326.5,528.5C 312.167,528.5 297.833,528.5 283.5,528.5C 267.802,525.635 258.636,516.302 256,500.5C 255.333,462.167 255.333,423.833 256,385.5C 259.092,372.076 267.259,363.576 280.5,360C 320.833,359.333 361.167,359.333 401.5,360C 414.146,363.145 422.146,370.978 425.5,383.5C 425.5,401.833 425.5,420.167 425.5,438.5C 429.042,438.813 432.375,438.479 435.5,437.5C 501.165,434.133 566.832,430.8 632.5,427.5C 632.123,420.34 631.79,413.173 631.5,406C 630.454,392.427 636.121,382.761 648.5,377C 678.802,374.701 709.136,373.368 739.5,373C 748.667,375.5 754.5,381.333 757,390.5C 758.054,400.474 758.554,410.474 758.5,420.5C 803.851,418.469 849.184,416.136 894.5,413.5C 893.729,399.172 893.562,384.838 894,370.5C 897.664,360.837 904.497,354.67 914.5,352C 944.493,350.667 974.493,350 1004.5,350C 1014.76,353.264 1021.26,360.098 1024,370.5C 1024.21,395.524 1025.04,420.524 1026.5,445.5C 1027.64,456.053 1024.64,465.22 1017.5,473C 1014.45,475.194 1011.11,476.861 1007.5,478C 992.19,479.166 976.856,479.999 961.5,480.5C 949.462,531.948 938.462,583.614 928.5,635.5C 939.195,636.05 949.529,638.217 959.5,642C 968.958,648.749 973.124,657.916 972,669.5C 967.953,694.084 964.453,718.751 961.5,743.5 Z"/></g>
<g><path style="opacity:1" fill="#fdfdfd" d="M 929.5,458.5 C 926.167,458.5 922.833,458.5 919.5,458.5C 919.819,453.637 919.486,448.97 918.5,444.5C 917.573,421.175 916.906,397.841 916.5,374.5C 944.508,373.926 972.508,373.426 1000.5,373C 1001.48,400.775 1002.48,428.609 1003.5,456.5C 978.828,456.989 954.161,457.656 929.5,458.5 Z"/></g>
<g><path style="opacity:1" fill="#fdfdfd" d="M 283.5,382.5 C 322.168,382.333 360.835,382.5 399.5,383C 400.333,383.833 401.167,384.667 402,385.5C 403.654,424.082 403.988,462.749 403,501.5C 401.833,502.667 400.667,503.833 399.5,505C 360.833,505.667 322.167,505.667 283.5,505C 282.069,504.535 280.903,503.701 280,502.5C 278.346,464.584 278.013,426.584 279,388.5C 280.332,386.34 281.832,384.34 283.5,382.5 Z"/></g>
<g><path style="opacity:1" fill="#fdfdfd" d="M 737.5,454.5 C 737.5,460.833 737.5,467.167 737.5,473.5C 733.958,473.187 730.625,473.521 727.5,474.5C 708.833,475.167 690.167,475.833 671.5,476.5C 667.167,476.5 662.833,476.5 658.5,476.5C 658.815,472.629 658.482,468.962 657.5,465.5C 656.525,443.169 655.525,420.836 654.5,398.5C 681.51,397.753 708.51,396.753 735.5,395.5C 736.086,415.171 736.753,434.837 737.5,454.5 Z"/></g>
<g><path style="opacity:1" fill="#505050" d="M 425.5,383.5 C 426.497,401.326 426.83,419.326 426.5,437.5C 429.5,437.5 432.5,437.5 435.5,437.5C 432.375,438.479 429.042,438.813 425.5,438.5C 425.5,420.167 425.5,401.833 425.5,383.5 Z"/></g>
<g><path style="opacity:1" fill="#fefefe" d="M 888.5,437.5 C 890.5,437.5 892.5,437.5 894.5,437.5C 894.187,441.042 894.521,444.375 895.5,447.5C 895.791,453.248 895.791,458.915 895.5,464.5C 829.626,530.208 763.626,595.708 697.5,661C 694.265,660.071 690.932,659.071 687.5,658C 647.331,657.169 607.331,657.335 567.5,658.5C 565.401,659.231 563.401,659.231 561.5,658.5C 515.649,608.483 469.982,558.316 424.5,508C 425.191,506.933 425.691,505.766 426,504.5C 426.5,490.171 426.667,475.837 426.5,461.5C 484.136,457.975 541.802,454.975 599.5,452.5C 610.698,452.601 621.698,451.934 632.5,450.5C 634.312,459.781 635.145,469.448 635,479.5C 638.38,492.767 646.88,499.767 660.5,500.5C 686.48,498.868 712.48,497.701 738.5,497C 750.919,494.913 758.419,487.747 761,475.5C 761.073,466.841 760.906,458.174 760.5,449.5C 760.5,447.833 760.5,446.167 760.5,444.5C 762.099,444.768 763.432,444.434 764.5,443.5C 805.824,441.325 847.158,439.325 888.5,437.5 Z"/></g>
<g><path style="opacity:1" fill="#939393" d="M 888.5,437.5 C 890.607,436.532 892.941,436.198 895.5,436.5C 895.5,440.167 895.5,443.833 895.5,447.5C 894.521,444.375 894.187,441.042 894.5,437.5C 892.5,437.5 890.5,437.5 888.5,437.5 Z"/></g>
<g><path style="opacity:1" fill="#929292" d="M 764.5,443.5 C 763.432,444.434 762.099,444.768 760.5,444.5C 760.5,446.167 760.5,447.833 760.5,449.5C 759.539,447.735 759.205,445.735 759.5,443.5C 761.167,443.5 762.833,443.5 764.5,443.5 Z"/></g>
<g><path style="opacity:1" fill="#a8a8a8" d="M 632.5,450.5 C 621.698,451.934 610.698,452.601 599.5,452.5C 610.306,451.139 621.306,450.472 632.5,450.5 Z"/></g>
<g><path style="opacity:1" fill="#bcbcbc" d="M 918.5,444.5 C 919.486,448.97 919.819,453.637 919.5,458.5C 922.833,458.5 926.167,458.5 929.5,458.5C 926.038,459.482 922.371,459.815 918.5,459.5C 918.5,454.5 918.5,449.5 918.5,444.5 Z"/></g>
<g><path style="opacity:1" fill="#bfbfbf" d="M 657.5,465.5 C 658.482,468.962 658.815,472.629 658.5,476.5C 662.833,476.5 667.167,476.5 671.5,476.5C 667.03,477.486 662.363,477.819 657.5,477.5C 657.5,473.5 657.5,469.5 657.5,465.5 Z"/></g>
<g><path style="opacity:1" fill="#9b9b9b" d="M 737.5,454.5 C 738.491,460.979 738.824,467.646 738.5,474.5C 734.833,474.5 731.167,474.5 727.5,474.5C 730.625,473.521 733.958,473.187 737.5,473.5C 737.5,467.167 737.5,460.833 737.5,454.5 Z"/></g>
<g><path style="opacity:1" fill="#fdfdfd" d="M 911.5,480.5 C 919.664,482.367 927.998,483.034 936.5,482.5C 925.963,531.85 915.296,581.183 904.5,630.5C 888.135,629.412 871.802,627.245 855.5,624C 839.08,622.12 828.247,628.954 823,644.5C 817.785,678.46 812.785,712.46 808,746.5C 804.098,763.19 809.598,775.356 824.5,783C 842.379,786.651 860.379,789.485 878.5,791.5C 875.957,807.759 873.957,824.092 872.5,840.5C 855.148,840.906 837.815,841.739 820.5,843C 816.42,844.75 812.587,846.917 809,849.5C 777.099,829.798 745.266,809.965 713.5,790C 712.824,753.549 712.157,717.049 711.5,680.5C 777.963,613.371 844.629,546.704 911.5,480.5 Z"/></g>
<g><path style="opacity:1" fill="#fefefe" d="M 436.5,854.5 C 414.673,853.503 392.673,853.169 370.5,853.5C 370.802,850.941 370.468,848.607 369.5,846.5C 367.557,816.47 365.224,786.47 362.5,756.5C 384.864,759.694 396.531,750.194 397.5,728C 396.36,705.805 395.193,683.638 394,661.5C 390.649,653.48 384.816,648.313 376.5,646C 370.843,645.501 365.176,645.334 359.5,645.5C 357.833,645.5 356.167,645.5 354.5,645.5C 354.768,643.901 354.434,642.568 353.5,641.5C 351.711,606.851 350.378,572.184 349.5,537.5C 349.5,534.833 349.5,532.167 349.5,529.5C 366.342,529.83 383.008,529.497 399.5,528.5C 402.697,528.027 405.863,527.361 409,526.5C 454.479,575.649 499.646,625.149 544.5,675C 543.528,677.111 542.695,679.278 542,681.5C 541.667,720.5 541.333,759.5 541,798.5C 510.667,819.167 480.333,839.833 450,860.5C 446.044,857.272 441.544,855.272 436.5,854.5 Z"/></g>
<g><path style="opacity:1" fill="#b2b2b2" d="M 283.5,528.5 C 297.833,528.5 312.167,528.5 326.5,528.5C 326.5,533.5 326.5,538.5 326.5,543.5C 325.514,539.03 325.181,534.363 325.5,529.5C 311.323,529.829 297.323,529.496 283.5,528.5 Z"/></g>
<g><path style="opacity:1" fill="#a3a3a3" d="M 399.5,528.5 C 383.008,529.497 366.342,529.83 349.5,529.5C 349.5,532.167 349.5,534.833 349.5,537.5C 348.523,534.713 348.19,531.713 348.5,528.5C 365.5,528.5 382.5,528.5 399.5,528.5 Z"/></g>
<g><path style="opacity:1" fill="#aaaaaa" d="M 353.5,641.5 C 354.434,642.568 354.768,643.901 354.5,645.5C 356.167,645.5 357.833,645.5 359.5,645.5C 357.735,646.461 355.735,646.795 353.5,646.5C 353.5,644.833 353.5,643.167 353.5,641.5 Z"/></g>
<g><path style="opacity:1" fill="#fdfdfd" d="M 846.5,646.5 C 879.512,651.192 912.512,656.026 945.5,661C 946.931,661.465 948.097,662.299 949,663.5C 944.659,698.884 939.659,734.218 934,769.5C 933.907,772.007 933.074,774.174 931.5,776C 899.422,772.12 867.422,767.453 835.5,762C 833.324,761.837 831.491,761.004 830,759.5C 833.989,721.571 839.489,683.904 846.5,646.5 Z"/></g>
<g><path style="opacity:1" fill="#0e0e0e" d="M 567.5,658.5 C 607.168,658.333 646.835,658.5 686.5,659C 646.929,659.17 607.429,659.67 568,660.5C 567.536,659.906 567.369,659.239 567.5,658.5 Z"/></g>
<g><path style="opacity:1" fill="#fcfcfb" d="M 374.5,718.5 C 374.5,723.5 374.5,728.5 374.5,733.5C 370.629,733.185 366.962,733.518 363.5,734.5C 345.826,734.539 328.16,734.873 310.5,735.5C 310.25,720.498 309.917,705.498 309.5,690.5C 309.5,684.167 309.5,677.833 309.5,671.5C 316.687,671.825 323.687,671.491 330.5,670.5C 344.488,669.652 358.488,668.985 372.5,668.5C 373.278,685.161 373.944,701.828 374.5,718.5 Z"/></g>
<g><path style="opacity:1" fill="#ababab" d="M 330.5,670.5 C 323.687,671.491 316.687,671.825 309.5,671.5C 309.5,677.833 309.5,684.167 309.5,690.5C 308.509,684.021 308.176,677.354 308.5,670.5C 315.833,670.5 323.167,670.5 330.5,670.5 Z"/></g>
<g><path style="opacity:1" fill="#fefefe" d="M 569.5,680.5 C 607.835,680.333 646.168,680.5 684.5,681C 686.286,681.785 687.786,682.951 689,684.5C 689.667,723.5 689.667,762.5 689,801.5C 687.833,802.667 686.667,803.833 685.5,805C 646.5,805.667 607.5,805.667 568.5,805C 567.667,804.167 566.833,803.333 566,802.5C 564.346,763.584 564.012,724.584 565,685.5C 566.707,683.963 568.207,682.296 569.5,680.5 Z"/></g>
<g><path style="opacity:1" fill="#5b5b5b" d="M 374.5,718.5 C 375.488,723.64 375.821,728.974 375.5,734.5C 371.5,734.5 367.5,734.5 363.5,734.5C 366.962,733.518 370.629,733.185 374.5,733.5C 374.5,728.5 374.5,723.5 374.5,718.5 Z"/></g>
<g><path style="opacity:1" fill="#a6a6a6" d="M 961.5,743.5 C 961.664,746.187 961.497,748.854 961,751.5C 960.722,752.416 960.222,753.082 959.5,753.5C 959.753,749.96 960.419,746.627 961.5,743.5 Z"/></g>
<g><path style="opacity:1" fill="#fdfdfd" d="M 801.5,900.5 C 799.844,902.06 797.844,903.06 795.5,903.5C 686.805,911.246 578.139,919.246 469.5,927.5C 467.5,927.5 465.5,927.5 463.5,927.5C 463.825,919.648 463.492,911.982 462.5,904.5C 462.334,896.16 462.5,887.827 463,879.5C 492.427,859.871 521.594,839.871 550.5,819.5C 554.529,823.358 559.196,826.191 564.5,828C 605.833,828.667 647.167,828.667 688.5,828C 692.385,827.261 696.052,825.927 699.5,824C 702.938,820.975 706.271,817.808 709.5,814.5C 739.235,833.563 769.235,852.229 799.5,870.5C 801.211,880.419 801.877,890.419 801.5,900.5 Z"/></g>
<g><path style="opacity:1" fill="#737371" d="M 896.5,835.5 C 896.5,836.5 896.5,837.5 896.5,838.5C 897.833,838.5 899.167,838.5 900.5,838.5C 899.081,839.451 897.415,839.784 895.5,839.5C 895.232,837.901 895.566,836.568 896.5,835.5 Z"/></g>
<g><path style="opacity:1" fill="#838383" d="M 369.5,846.5 C 370.468,848.607 370.802,850.941 370.5,853.5C 392.673,853.169 414.673,853.503 436.5,854.5C 414.167,854.5 391.833,854.5 369.5,854.5C 369.5,851.833 369.5,849.167 369.5,846.5 Z"/></g>
<g><path style="opacity:1" fill="#7f7f7f" d="M 346.5,848.5 C 347.468,850.607 347.802,852.941 347.5,855.5C 337.5,855.5 327.5,855.5 317.5,855.5C 326.986,854.506 336.652,854.173 346.5,854.5C 346.5,852.5 346.5,850.5 346.5,848.5 Z"/></g>
<g><path style="opacity:1" fill="#fdfdfd" d="M 887.5,861.5 C 897.167,861.5 906.833,861.5 916.5,861.5C 918.051,892.147 919.051,922.813 919.5,953.5C 888.847,954.88 858.181,955.88 827.5,956.5C 826.249,926.49 825.082,896.49 824,866.5C 845.261,864.815 866.428,863.148 887.5,861.5 Z"/></g>
<g><path style="opacity:1" fill="#fdfdfd" d="M 367.5,876.5 C 389.836,876.333 412.169,876.5 434.5,877C 436.333,878.167 437.833,879.667 439,881.5C 439.685,919.168 440.018,956.835 440,994.5C 439.215,996.286 438.049,997.786 436.5,999C 397.835,999.934 359.169,1000.27 320.5,1000C 319.667,999.167 318.833,998.333 318,997.5C 316.397,959.249 315.731,920.916 316,882.5C 317.5,881 319,879.5 320.5,878C 336.339,877.831 352.005,877.331 367.5,876.5 Z"/></g>
<g><path style="opacity:1" fill="#979797" d="M 801.5,900.5 C 802.404,901.209 802.737,902.209 802.5,903.5C 800.167,903.5 797.833,903.5 795.5,903.5C 797.844,903.06 799.844,902.06 801.5,900.5 Z"/></g>
<g><path style="opacity:1" fill="#b6b6b6" d="M 462.5,904.5 C 463.492,911.982 463.825,919.648 463.5,927.5C 465.5,927.5 467.5,927.5 469.5,927.5C 467.393,928.468 465.059,928.802 462.5,928.5C 462.5,920.5 462.5,912.5 462.5,904.5 Z"/></g>
<g><path style="opacity:1" fill="#d2d2d2" d="M 873.5,978.5 C 862.362,979.897 851.028,980.564 839.5,980.5C 850.638,979.103 861.972,978.436 873.5,978.5 Z"/></g>
</svg>
