<?xml version="1.0" encoding="UTF-8"?>
<!DOCTYPE svg PUBLIC "-//W3C//DTD SVG 1.1//EN" "http://www.w3.org/Graphics/SVG/1.1/DTD/svg11.dtd">
<svg xmlns="http://www.w3.org/2000/svg" version="1.1" viewBox="0 0 1480 1480" width="1480px" height="1480px" style="shape-rendering:geometricPrecision; text-rendering:geometricPrecision; image-rendering:optimizeQuality; fill-rule:evenodd; clip-rule:evenodd" xmlns:xlink="http://www.w3.org/1999/xlink">
<g><path style="opacity:1" fill="#fefefe" d="M -0.5,-0.5 C 492.833,-0.5 986.167,-0.5 1479.5,-0.5C 1479.5,492.833 1479.5,986.167 1479.5,1479.5C 986.167,1479.5 492.833,1479.5 -0.5,1479.5C -0.5,986.167 -0.5,492.833 -0.5,-0.5 Z"/></g>
<g><path style="opacity:1" fill="#fdfdfd" d="M 1211.5,741.5 C 1209.33,756.186 1207,770.853 1204.5,785.5C 1200.69,804.192 1196.36,822.858 1191.5,841.5C 1187.93,852.329 1184.59,863.329 1181.5,874.5C 1175.01,888.841 1169.01,903.508 1163.5,918.5C 1129.31,989.874 1083.97,1053.37 1027.5,1109C 944.676,1189.13 851.343,1254.46 747.5,1305C 745.833,1305.67 744.167,1305.67 742.5,1305C 739.929,1303.55 737.262,1302.38 734.5,1301.5C 654.908,1260.89 580.908,1212.06 512.5,1155C 457.823,1108.34 410.323,1055.5 370,996.5C 314.294,909.76 282.96,814.76 276,711.5C 273.686,668.851 271.853,626.184 270.5,583.5C 270.899,572.614 270.233,561.947 268.5,551.5C 265.782,491.503 263.115,431.503 260.5,371.5C 259.913,365.697 260.58,360.197 262.5,355C 294.937,346.797 327.271,338.297 359.5,329.5C 362.674,329.998 366.007,329.998 369.5,329.5C 369.5,328.5 369.5,327.5 369.5,326.5C 372.526,325.423 375.526,325.423 378.5,326.5C 380.22,325.066 382.22,324.233 384.5,324C 384.167,323.667 383.833,323.333 383.5,323C 384.942,322.623 385.942,321.79 386.5,320.5C 458.173,298.006 526.173,267.506 590.5,229C 647.116,192.74 697.283,148.907 741,97.5C 742.113,95.6707 743.613,94.8374 745.5,95C 814.024,173.948 896.024,234.948 991.5,278C 1068.1,311.143 1147.1,336.976 1228.5,355.5C 1228.83,359.667 1229.17,363.833 1229.5,368C 1226.45,441.839 1223.28,515.673 1220,589.5C 1218.2,640.231 1215.36,690.897 1211.5,741.5 Z"/></g>
<g><path style="opacity:1" fill="#fefefe" d="M 731.5,236.5 C 732.5,555.666 732.833,875 732.5,1194.5C 694.331,1173.59 657.331,1150.92 621.5,1126.5C 609.524,1117.53 597.524,1108.53 585.5,1099.5C 585.67,1098.18 585.337,1097.01 584.5,1096C 587.259,1093.43 586.926,1091.26 583.5,1089.5C 583.031,1085.21 580.865,1082.21 577,1080.5C 576.055,1080.91 575.388,1081.57 575,1082.5C 571.059,1080.16 571.226,1077.66 575.5,1075C 574.359,1074.26 574.359,1073.43 575.5,1072.5C 574.302,1072.06 573.135,1071.73 572,1071.5C 570.045,1073.98 567.879,1074.15 565.5,1072C 569.053,1070.3 572.72,1068.8 576.5,1067.5C 578.55,1068.08 579.55,1069.41 579.5,1071.5C 581.527,1071.34 583.527,1071.5 585.5,1072C 584.707,1073.09 584.04,1074.25 583.5,1075.5C 585.987,1076.58 588.32,1077.91 590.5,1079.5C 592.488,1078.71 592.821,1077.54 591.5,1076C 594.333,1076.1 595.999,1077.6 596.5,1080.5C 599.907,1079.66 603.241,1078.66 606.5,1077.5C 626.106,1092.64 646.439,1106.81 667.5,1120C 679.175,1121.32 684.675,1116.16 684,1104.5C 682.542,1102.04 680.709,1099.87 678.5,1098C 645.31,1076.98 613.976,1053.48 584.5,1027.5C 552.222,998.066 523.388,965.732 498,930.5C 454.09,865.292 429.423,793.292 424,714.5C 419.405,706.581 412.905,704.581 404.5,708.5C 400.987,712.213 399.653,716.713 400.5,722C 403.015,754.739 408.682,786.906 417.5,818.5C 416.833,820.167 416.167,821.833 415.5,823.5C 414.178,823.33 413.011,823.663 412,824.5C 411.689,826.556 411.189,828.556 410.5,830.5C 412.045,831.452 413.712,831.785 415.5,831.5C 415.5,833.167 415.5,834.833 415.5,836.5C 414.167,836.5 412.833,836.5 411.5,836.5C 413.103,839.373 414.436,842.373 415.5,845.5C 412.856,845.16 410.523,845.827 408.5,847.5C 405.788,845.74 402.788,845.073 399.5,845.5C 399.934,842.834 398.934,841.667 396.5,842C 397.355,846.242 398.522,850.742 400,855.5C 400.75,856.126 401.584,856.626 402.5,857C 401.483,858.049 401.316,859.216 402,860.5C 402.984,858.205 403.817,858.539 404.5,861.5C 404.167,862.167 403.833,862.833 403.5,863.5C 406.342,867.217 407.009,871.217 405.5,875.5C 401.794,867.397 398.461,859.064 395.5,850.5C 390.014,834.201 385.014,817.868 380.5,801.5C 377.321,786.602 374.654,771.602 372.5,756.5C 372.192,752.64 371.525,748.974 370.5,745.5C 366.995,709.585 364.662,673.585 363.5,637.5C 359.975,562.52 356.975,487.52 354.5,412.5C 410.723,400.118 465.389,383.118 518.5,361.5C 580.088,337.717 637.421,306.717 690.5,268.5C 691.167,268.167 691.833,267.833 692.5,267.5C 705.788,257.547 718.788,247.214 731.5,236.5 Z"/></g>
<g><path style="opacity:1" fill="#fefefe" d="M 761.5,239.5 C 828.451,293.5 902.451,336 983.5,367C 1032.97,386.099 1083.63,401.265 1135.5,412.5C 1132.33,500.174 1129,587.841 1125.5,675.5C 1124.03,704.847 1121.03,734.18 1116.5,763.5C 1115.18,770.113 1114.18,776.78 1113.5,783.5C 1107.57,810.221 1099.9,836.555 1090.5,862.5C 1085.7,874.244 1080.7,885.91 1075.5,897.5C 1067.21,914.746 1057.88,931.413 1047.5,947.5C 1040.74,958.035 1033.74,968.368 1026.5,978.5C 983.758,1032.41 934.424,1079.25 878.5,1119C 859.112,1132.69 839.446,1145.85 819.5,1158.5C 799.828,1170.67 779.828,1182.34 759.5,1193.5C 758.5,875.667 758.167,557.667 758.5,239.5C 759.5,239.5 760.5,239.5 761.5,239.5 Z"/></g>
<g><path style="opacity:1" fill="#2f3944" d="M 1149.5,308.5 C 1153.89,310.435 1158.56,311.769 1163.5,312.5C 1183.42,318.899 1203.76,324.232 1224.5,328.5C 1231.95,330.947 1239.62,332.947 1247.5,334.5C 1253.27,337.376 1255.94,342.043 1255.5,348.5C 1252.79,398.472 1250.79,448.472 1249.5,498.5C 1247.97,511.302 1247.3,524.302 1247.5,537.5C 1246.18,549.31 1245.51,561.31 1245.5,573.5C 1243.59,626.875 1240.93,680.208 1237.5,733.5C 1236.11,738.269 1235.44,743.269 1235.5,748.5C 1234.9,754.362 1233.9,760.029 1232.5,765.5C 1232.54,762.413 1232.71,759.413 1233,756.5C 1231.41,758.968 1229.58,759.134 1227.5,757C 1226.14,755.416 1225.47,753.582 1225.5,751.5C 1222.15,751.665 1218.82,751.498 1215.5,751C 1213.65,747.94 1212.32,744.773 1211.5,741.5C 1215.36,690.897 1218.2,640.231 1220,589.5C 1223.28,515.673 1226.45,441.839 1229.5,368C 1229.17,363.833 1228.83,359.667 1228.5,355.5C 1147.1,336.976 1068.1,311.143 991.5,278C 896.024,234.948 814.024,173.948 745.5,95C 743.613,94.8374 742.113,95.6707 741,97.5C 697.283,148.907 647.116,192.74 590.5,229C 526.173,267.506 458.173,298.006 386.5,320.5C 377.243,323.056 368.243,326.056 359.5,329.5C 327.271,338.297 294.937,346.797 262.5,355C 260.58,360.197 259.913,365.697 260.5,371.5C 259.71,370.391 259.21,369.058 259,367.5C 258.803,372.086 258.303,376.586 257.5,381C 258.572,386.376 258.572,391.876 257.5,397.5C 257.875,399.916 258.541,402.25 259.5,404.5C 259.115,413.516 258.781,422.516 258.5,431.5C 259.5,431.5 260.5,431.5 261.5,431.5C 262.349,444.504 262.016,457.504 260.5,470.5C 259.264,469.754 257.93,469.421 256.5,469.5C 256.657,468.127 256.49,466.793 256,465.5C 255.586,465.957 255.086,466.291 254.5,466.5C 253.508,470.783 253.174,475.116 253.5,479.5C 248.493,480.328 246.159,478.162 246.5,473C 246.811,470.677 247.144,468.344 247.5,466C 246.167,466 244.833,466 243.5,466C 244.517,464.951 244.684,463.784 244,462.5C 243.667,462.833 243.333,463.167 243,463.5C 242.792,461.141 242.626,458.974 242.5,457C 243.5,456.667 244.5,456.333 245.5,456C 244.556,453.281 244.223,450.448 244.5,447.5C 247.247,447.813 249.914,447.48 252.5,446.5C 250.816,443.388 250.15,440.054 250.5,436.5C 257.531,436.481 257.864,435.981 251.5,435C 249.699,434.683 249.366,434.016 250.5,433C 252.833,432.667 255.167,432.333 257.5,432C 256.214,428.767 255.547,425.267 255.5,421.5C 255.567,410.27 255.567,399.27 255.5,388.5C 254.5,388.5 253.5,388.5 252.5,388.5C 252.5,386.833 252.5,385.167 252.5,383.5C 249.306,383.73 246.306,383.064 243.5,381.5C 241.301,383.149 239.468,382.816 238,380.5C 237.667,376.167 237.333,371.833 237,367.5C 236.502,370.817 236.335,374.15 236.5,377.5C 235.231,366.01 234.731,354.343 235,342.5C 236.5,338.333 239.333,335.5 243.5,334C 326.594,316.058 407.261,290.391 485.5,257C 568.835,220.328 641.668,168.828 704,102.5C 714.739,90.0178 725.239,77.3511 735.5,64.5C 740.743,59.8044 746.41,59.3044 752.5,63C 809.995,135.552 879.662,193.219 961.5,236C 1021.72,266.612 1084.38,290.778 1149.5,308.5 Z"/></g>
<g><path style="opacity:1" fill="#293542" d="M 692.5,267.5 C 691.833,267.833 691.167,268.167 690.5,268.5C 687.956,268.104 685.789,268.771 684,270.5C 683.581,269.328 682.915,268.328 682,267.5C 678.64,270.673 675.806,273.673 673.5,276.5C 671.167,275.167 668.833,275.167 666.5,276.5C 663.352,275.86 663.019,274.86 665.5,273.5C 665.167,273.167 664.833,272.833 664.5,272.5C 663.409,274.015 662.076,274.848 660.5,275C 660.043,274.586 659.709,274.086 659.5,273.5C 660.491,272.335 661.491,271.168 662.5,270C 660.957,267.67 660.457,265.17 661,262.5C 663.86,262.273 666.36,260.94 668.5,258.5C 670.033,256.711 671.033,254.711 671.5,252.5C 673.068,253.473 674.735,253.64 676.5,253C 680.506,248.497 685.506,245.83 691.5,245C 692.976,240.404 695.31,239.737 698.5,243C 697.483,244.049 697.316,245.216 698,246.5C 700.308,246.207 702.474,247.041 704.5,249C 702.833,249.333 701.167,249.667 699.5,250C 699.745,252.089 699.745,254.089 699.5,256C 697.637,258.192 695.804,260.358 694,262.5C 692.434,261.939 691.101,262.606 690,264.5C 689.373,266.586 689.873,266.919 691.5,265.5C 692.298,265.957 692.631,266.624 692.5,267.5 Z"/></g>
<g><path style="opacity:1" fill="#cbd0d4" d="M 1149.5,308.5 C 1152.55,309.357 1155.55,309.357 1158.5,308.5C 1159.7,308.846 1159.7,309.346 1158.5,310C 1160.31,310.757 1161.98,311.59 1163.5,312.5C 1158.56,311.769 1153.89,310.435 1149.5,308.5 Z"/></g>
<g><path style="opacity:1" fill="#e0e5e7" d="M 386.5,320.5 C 385.942,321.79 384.942,322.623 383.5,323C 383.833,323.333 384.167,323.667 384.5,324C 382.22,324.233 380.22,325.066 378.5,326.5C 375.526,325.423 372.526,325.423 369.5,326.5C 369.5,327.5 369.5,328.5 369.5,329.5C 366.007,329.998 362.674,329.998 359.5,329.5C 368.243,326.056 377.243,323.056 386.5,320.5 Z"/></g>
<g><path style="opacity:1" fill="#e1e5e9" d="M 1247.5,334.5 C 1239.62,332.947 1231.95,330.947 1224.5,328.5C 1228.09,328.33 1231.42,327.997 1234.5,327.5C 1236.12,328.154 1237.78,328.654 1239.5,329C 1240.29,332.097 1241.46,332.264 1243,329.5C 1245.05,330.714 1246.55,332.38 1247.5,334.5 Z"/></g>
<g><path style="opacity:1" fill="#2e3943" d="M 1149.5,688.5 C 1148.69,695.678 1148.02,703.012 1147.5,710.5C 1146.5,710.414 1145.67,710.748 1145,711.5C 1144.5,714.146 1144.34,716.813 1144.5,719.5C 1142.83,719.5 1141.17,719.5 1139.5,719.5C 1138.02,708.996 1137.02,698.33 1136.5,687.5C 1135.83,689.5 1135.17,691.5 1134.5,693.5C 1132.69,694.859 1131.19,694.525 1130,692.5C 1129.17,693.5 1128.33,694.5 1127.5,695.5C 1126.81,694.975 1126.31,694.308 1126,693.5C 1125.67,695.5 1125.33,697.5 1125,699.5C 1124.11,696.547 1124.61,693.881 1126.5,691.5C 1125.55,686.23 1125.22,680.897 1125.5,675.5C 1129,587.841 1132.33,500.174 1135.5,412.5C 1083.63,401.265 1032.97,386.099 983.5,367C 902.451,336 828.451,293.5 761.5,239.5C 760.833,238.167 759.833,237.167 758.5,236.5C 758.44,235.957 758.107,235.624 757.5,235.5C 756.5,496.832 756.167,758.166 756.5,1019.5C 755.531,1021.66 754.698,1024 754,1026.5C 753.752,1037.35 753.252,1048.18 752.5,1059C 752.993,1061.06 753.66,1063.06 754.5,1065C 754.333,1065.83 754.167,1066.67 754,1067.5C 753.667,1066.17 753.333,1064.83 753,1063.5C 752.503,1066.15 752.336,1068.81 752.5,1071.5C 753.675,1071.28 754.675,1071.61 755.5,1072.5C 754.543,1077.44 753.876,1082.44 753.5,1087.5C 753.351,1098.64 753.685,1109.81 754.5,1121C 753.716,1128.46 753.216,1135.96 753,1143.5C 752.667,1144.83 752.333,1146.17 752,1147.5C 751.931,1141.09 749.931,1135.42 746,1130.5C 747.239,1136.49 747.739,1142.49 747.5,1148.5C 746.38,1150.6 744.88,1150.93 743,1149.5C 739.59,1150.87 739.757,1151.54 743.5,1151.5C 743.557,1157.39 741.724,1158.39 738,1154.5C 737.586,1154.96 737.086,1155.29 736.5,1155.5C 735.571,1154.31 735.238,1152.98 735.5,1151.5C 736.833,1151.5 738.167,1151.5 739.5,1151.5C 739.5,1146.17 739.5,1140.83 739.5,1135.5C 737.833,1135.5 736.167,1135.5 734.5,1135.5C 734.438,1120.49 734.771,1105.49 735.5,1090.5C 737.5,1090.5 739.5,1090.5 741.5,1090.5C 741.238,1091.98 741.571,1093.31 742.5,1094.5C 743.474,1092.26 743.808,1089.92 743.5,1087.5C 742.5,1087.5 741.5,1087.5 740.5,1087.5C 740.329,1076.85 739.829,1076.85 739,1087.5C 738.176,1084.12 738.343,1080.78 739.5,1077.5C 740.086,1077.71 740.586,1078.04 741,1078.5C 740.982,1074.56 742.815,1072.23 746.5,1071.5C 746.687,1066.38 746.687,1061.38 746.5,1056.5C 748.045,1055.55 749.712,1055.21 751.5,1055.5C 751.5,1039.5 751.5,1023.5 751.5,1007.5C 749.167,1007.5 746.833,1007.5 744.5,1007.5C 745.178,1011.27 743.844,1014.11 740.5,1016C 741.766,1016.31 742.933,1016.81 744,1017.5C 744.495,1019.47 744.662,1021.47 744.5,1023.5C 745.5,1023.5 746.5,1023.5 747.5,1023.5C 747.5,1026.17 747.5,1028.83 747.5,1031.5C 745.856,1031.29 744.356,1031.62 743,1032.5C 742.216,1029.24 742.383,1026.07 743.5,1023C 742.216,1022.32 741.049,1022.48 740,1023.5C 739.503,1026.15 739.336,1028.81 739.5,1031.5C 738.5,1031.5 737.5,1031.5 736.5,1031.5C 736.664,1028.81 736.497,1026.15 736,1023.5C 735.768,1024.74 735.268,1025.74 734.5,1026.5C 734.5,987.5 734.5,948.5 734.5,909.5C 734.938,904.46 735.938,899.46 737.5,894.5C 738.167,894.167 738.833,893.833 739.5,893.5C 743.317,895.196 747.317,895.863 751.5,895.5C 751.5,899.167 751.5,902.833 751.5,906.5C 750.448,906.351 749.448,906.517 748.5,907C 749.833,908.667 749.833,910.333 748.5,912C 751.079,913.612 751.079,915.112 748.5,916.5C 747.534,918.396 747.201,920.396 747.5,922.5C 748.833,922.5 750.167,922.5 751.5,922.5C 751.62,925.205 750.62,925.872 748.5,924.5C 747.614,925.325 747.281,926.325 747.5,927.5C 744.579,927.146 742.246,928.146 740.5,930.5C 739.614,929.675 739.281,928.675 739.5,927.5C 738.448,927.351 737.448,927.517 736.5,928C 737.808,930.355 738.808,932.855 739.5,935.5C 745.978,939.75 747.311,945.416 743.5,952.5C 746.086,953.48 748.753,953.813 751.5,953.5C 751.5,954.833 751.5,956.167 751.5,957.5C 748.833,957.5 746.167,957.5 743.5,957.5C 743.089,960.276 743.922,960.943 746,959.5C 747.834,961.756 749.501,961.756 751,959.5C 751.667,960.833 751.667,962.167 751,963.5C 748.667,963.5 746.333,963.5 744,963.5C 743.027,965.947 742.194,968.447 741.5,971C 741.559,972.436 741.892,973.769 742.5,975C 741.975,975.692 741.308,976.192 740.5,976.5C 740.779,973.673 740.279,970.673 739,967.5C 737.536,970.726 736.369,974.059 735.5,977.5C 735.529,979.029 736.196,980.196 737.5,981C 735.771,982.789 735.104,984.956 735.5,987.5C 738.448,987.777 741.281,987.444 744,986.5C 745.51,988.208 747.01,989.874 748.5,991.5C 750.322,987.898 751.322,987.898 751.5,991.5C 752.5,991.5 753.5,991.5 754.5,991.5C 753.986,968.942 753.986,946.275 754.5,923.5C 753.999,911.491 753.333,899.491 752.5,887.5C 753.478,874.349 754.145,861.182 754.5,848C 754.411,830.951 754.411,813.784 754.5,796.5C 752.386,779.91 752.386,763.243 754.5,746.5C 753.943,728.939 753.943,711.272 754.5,693.5C 754.333,690.167 754.167,686.833 754,683.5C 753.13,682.892 752.63,682.059 752.5,681C 754.101,675.632 755.101,670.132 755.5,664.5C 754.693,650.986 754.36,637.319 754.5,623.5C 753.5,623.5 752.5,623.5 751.5,623.5C 751.5,627.167 751.5,630.833 751.5,634.5C 746.849,634.321 742.349,634.321 738,634.5C 737,633.5 736,632.5 735,631.5C 734.768,632.737 734.268,633.737 733.5,634.5C 733.833,501.498 733.5,368.498 732.5,235.5C 731.893,235.624 731.56,235.957 731.5,236.5C 718.788,247.214 705.788,257.547 692.5,267.5C 692.631,266.624 692.298,265.957 691.5,265.5C 689.873,266.919 689.373,266.586 690,264.5C 691.101,262.606 692.434,261.939 694,262.5C 695.804,260.358 697.637,258.192 699.5,256C 699.745,254.089 699.745,252.089 699.5,250C 701.167,249.667 702.833,249.333 704.5,249C 702.474,247.041 700.308,246.207 698,246.5C 697.316,245.216 697.483,244.049 698.5,243C 695.31,239.737 692.976,240.404 691.5,245C 685.506,245.83 680.506,248.497 676.5,253C 674.735,253.64 673.068,253.473 671.5,252.5C 694.774,235.744 716.774,217.244 737.5,197C 742.468,193.768 747.468,193.768 752.5,197C 787.041,229.887 824.707,258.554 865.5,283C 955.037,334.092 1050.37,370.092 1151.5,391C 1158.98,393.445 1162.31,398.612 1161.5,406.5C 1156.83,500.476 1152.83,594.476 1149.5,688.5 Z"/></g>
<g><path style="opacity:1" fill="#2e3944" d="M 671.5,252.5 C 671.033,254.711 670.033,256.711 668.5,258.5C 666.36,260.94 663.86,262.273 661,262.5C 660.457,265.17 660.957,267.67 662.5,270C 661.491,271.168 660.491,272.335 659.5,273.5C 659.709,274.086 660.043,274.586 660.5,275C 662.076,274.848 663.409,274.015 664.5,272.5C 664.833,272.833 665.167,273.167 665.5,273.5C 663.019,274.86 663.352,275.86 666.5,276.5C 668.833,275.167 671.167,275.167 673.5,276.5C 675.806,273.673 678.64,270.673 682,267.5C 682.915,268.328 683.581,269.328 684,270.5C 685.789,268.771 687.956,268.104 690.5,268.5C 637.421,306.717 580.088,337.717 518.5,361.5C 465.389,383.118 410.723,400.118 354.5,412.5C 353.42,429.053 353.42,445.553 354.5,462C 353.833,462.333 353.167,462.667 352.5,463C 354.913,466.213 355.913,469.88 355.5,474C 354.154,479.75 353.154,485.416 352.5,491C 353.926,494.491 354.593,498.158 354.5,502C 354.1,510.466 354.1,518.966 354.5,527.5C 351.833,527.5 349.167,527.5 346.5,527.5C 346.195,532.762 346.529,537.928 347.5,543C 347.033,549.231 346.033,555.397 344.5,561.5C 345.737,567.226 348.737,571.726 353.5,575C 352.718,577.74 352.218,580.574 352,583.5C 350.585,580.998 350.419,578.332 351.5,575.5C 348.833,575.5 346.167,575.5 343.5,575.5C 343.649,576.552 343.483,577.552 343,578.5C 342.727,576.671 341.893,575.171 340.5,574C 344.318,572.118 344.484,569.951 341,567.5C 340.667,568.5 340.333,569.5 340,570.5C 338.989,569.663 337.822,569.33 336.5,569.5C 334.34,519.492 332.007,469.492 329.5,419.5C 329.068,411.721 329.568,404.054 331,396.5C 335.879,391.602 341.713,388.935 348.5,388.5C 437.727,368.924 522.727,337.757 603.5,295C 626.849,281.796 649.516,267.629 671.5,252.5 Z"/></g>
<g><path style="opacity:1" fill="#293542" d="M 518.5,361.5 C 514.947,359.433 511.28,359.6 507.5,362C 508.696,362.654 508.696,363.154 507.5,363.5C 504.709,361.96 502.209,362.294 500,364.5C 499.29,363.027 498.124,362.36 496.5,362.5C 496.709,360.286 495.876,358.619 494,357.5C 488.787,357.283 483.953,355.95 479.5,353.5C 478.479,352.998 478.312,352.332 479,351.5C 480.726,352.576 482.559,352.743 484.5,352C 486.552,350.188 488.885,348.855 491.5,348C 497.771,347.608 503.271,345.442 508,341.5C 508.368,342.91 509.201,343.91 510.5,344.5C 512.982,342.723 515.649,341.223 518.5,340C 520.037,338.89 520.703,337.39 520.5,335.5C 522.833,335.5 525.167,335.5 527.5,335.5C 527.5,338.833 527.5,342.167 527.5,345.5C 533.36,346.926 535.36,344.926 533.5,339.5C 532.264,338.754 530.93,338.421 529.5,338.5C 529.5,337.5 529.5,336.5 529.5,335.5C 534.61,336.341 539.61,337.675 544.5,339.5C 543.221,341.146 541.555,342.313 539.5,343C 541.497,343.76 543.163,344.26 544.5,344.5C 542.941,346.131 540.941,346.964 538.5,347C 539.727,348.587 539.394,349.921 537.5,351C 532.475,351.153 527.808,352.486 523.5,355C 520.979,356.558 519.312,358.725 518.5,361.5 Z"/></g>
<g><path style="opacity:1" fill="#3c4248" d="M 758.5,236.5 C 757.167,555.833 757.167,875.167 758.5,1194.5C 758.44,1195.04 758.107,1195.38 757.5,1195.5C 756.5,1136.84 756.167,1078.17 756.5,1019.5C 756.167,758.166 756.5,496.832 757.5,235.5C 758.107,235.624 758.44,235.957 758.5,236.5 Z"/></g>
<g><path style="opacity:1" fill="#e3e6ea" d="M 348.5,388.5 C 341.713,388.935 335.879,391.602 331,396.5C 329.568,404.054 329.068,411.721 329.5,419.5C 328.801,412.63 328.134,405.63 327.5,398.5C 329.037,395.398 331.037,392.732 333.5,390.5C 338.303,388.241 343.303,387.074 348.5,387C 345.903,387.779 345.903,388.279 348.5,388.5 Z"/></g>
<g><path style="opacity:1" fill="#7e8389" d="M 731.5,236.5 C 731.56,235.957 731.893,235.624 732.5,235.5C 733.5,368.498 733.833,501.498 733.5,634.5C 733.5,636.167 733.5,637.833 733.5,639.5C 733.5,775.5 733.5,911.5 733.5,1047.5C 733.832,1096.67 733.499,1145.67 732.5,1194.5C 732.833,875 732.5,555.666 731.5,236.5 Z"/></g>
<g><path style="opacity:1" fill="#d8dde0" d="M 1249.5,498.5 C 1249.59,511.693 1248.92,524.693 1247.5,537.5C 1247.3,524.302 1247.97,511.302 1249.5,498.5 Z"/></g>
<g><path style="opacity:1" fill="#313c45" d="M 354.5,412.5 C 356.975,487.52 359.975,562.52 363.5,637.5C 362.41,639.763 361.077,639.93 359.5,638C 359.281,634.502 359.615,630.835 360.5,627C 359.897,625.175 359.23,623.341 358.5,621.5C 355.428,622.87 352.261,623.87 349,624.5C 348.383,625.449 348.549,626.282 349.5,627C 348.833,627.667 348.167,628.333 347.5,629C 348.848,630.574 349.514,632.407 349.5,634.5C 348.833,641.833 348.167,649.167 347.5,656.5C 346.954,660.112 345.621,660.279 343.5,657C 344.34,655.334 343.84,655.167 342,656.5C 341.667,654.833 341.333,653.167 341,651.5C 340.501,656.155 340.334,660.821 340.5,665.5C 340.167,665.5 339.833,665.5 339.5,665.5C 339.828,653.322 339.495,641.322 338.5,629.5C 338.491,615.314 337.824,601.314 336.5,587.5C 336.5,581.5 336.5,575.5 336.5,569.5C 337.822,569.33 338.989,569.663 340,570.5C 340.333,569.5 340.667,568.5 341,567.5C 344.484,569.951 344.318,572.118 340.5,574C 341.893,575.171 342.727,576.671 343,578.5C 343.483,577.552 343.649,576.552 343.5,575.5C 346.167,575.5 348.833,575.5 351.5,575.5C 350.419,578.332 350.585,580.998 352,583.5C 352.218,580.574 352.718,577.74 353.5,575C 348.737,571.726 345.737,567.226 344.5,561.5C 346.033,555.397 347.033,549.231 347.5,543C 346.529,537.928 346.195,532.762 346.5,527.5C 349.167,527.5 351.833,527.5 354.5,527.5C 354.1,518.966 354.1,510.466 354.5,502C 354.593,498.158 353.926,494.491 352.5,491C 353.154,485.416 354.154,479.75 355.5,474C 355.913,469.88 354.913,466.213 352.5,463C 353.167,462.667 353.833,462.333 354.5,462C 353.42,445.553 353.42,429.053 354.5,412.5 Z"/></g>
<g><path style="opacity:1" fill="#d4d7da" d="M 268.5,551.5 C 270.233,561.947 270.899,572.614 270.5,583.5C 269.44,573.01 268.774,562.344 268.5,551.5 Z"/></g>
<g><path style="opacity:1" fill="#b8c0c5" d="M 1247.5,537.5 C 1247.68,549.7 1247.02,561.7 1245.5,573.5C 1245.51,561.31 1246.18,549.31 1247.5,537.5 Z"/></g>
<g><path style="opacity:1" fill="#2e3843" d="M 260.5,371.5 C 263.115,431.503 265.782,491.503 268.5,551.5C 268.774,562.344 269.44,573.01 270.5,583.5C 271.853,626.184 273.686,668.851 276,711.5C 282.96,814.76 314.294,909.76 370,996.5C 410.323,1055.5 457.823,1108.34 512.5,1155C 580.908,1212.06 654.908,1260.89 734.5,1301.5C 731.503,1303.93 728.17,1306.09 724.5,1308C 725.641,1308.74 725.641,1309.57 724.5,1310.5C 720.5,1311.17 716.5,1311.83 712.5,1312.5C 713.771,1314.83 715.771,1316 718.5,1316C 719.337,1317.01 719.67,1318.18 719.5,1319.5C 722.874,1319.67 726.207,1320.17 729.5,1321C 728.928,1322.28 728.928,1323.78 729.5,1325.5C 615.584,1270.28 514.417,1197.28 426,1106.5C 317.406,992.247 258.739,855.913 250,697.5C 245.785,590.819 241.285,484.153 236.5,377.5C 236.335,374.15 236.502,370.817 237,367.5C 237.333,371.833 237.667,376.167 238,380.5C 239.468,382.816 241.301,383.149 243.5,381.5C 246.306,383.064 249.306,383.73 252.5,383.5C 252.5,385.167 252.5,386.833 252.5,388.5C 253.5,388.5 254.5,388.5 255.5,388.5C 255.567,399.27 255.567,410.27 255.5,421.5C 255.547,425.267 256.214,428.767 257.5,432C 255.167,432.333 252.833,432.667 250.5,433C 249.366,434.016 249.699,434.683 251.5,435C 257.864,435.981 257.531,436.481 250.5,436.5C 250.15,440.054 250.816,443.388 252.5,446.5C 249.914,447.48 247.247,447.813 244.5,447.5C 244.223,450.448 244.556,453.281 245.5,456C 244.5,456.333 243.5,456.667 242.5,457C 242.626,458.974 242.792,461.141 243,463.5C 243.333,463.167 243.667,462.833 244,462.5C 244.684,463.784 244.517,464.951 243.5,466C 244.833,466 246.167,466 247.5,466C 247.144,468.344 246.811,470.677 246.5,473C 246.159,478.162 248.493,480.328 253.5,479.5C 253.174,475.116 253.508,470.783 254.5,466.5C 255.086,466.291 255.586,465.957 256,465.5C 256.49,466.793 256.657,468.127 256.5,469.5C 257.93,469.421 259.264,469.754 260.5,470.5C 262.016,457.504 262.349,444.504 261.5,431.5C 260.5,431.5 259.5,431.5 258.5,431.5C 258.781,422.516 259.115,413.516 259.5,404.5C 258.541,402.25 257.875,399.916 257.5,397.5C 258.572,391.876 258.572,386.376 257.5,381C 258.303,376.586 258.803,372.086 259,367.5C 259.21,369.058 259.71,370.391 260.5,371.5 Z"/></g>
<g><path style="opacity:1" fill="#cdd2d5" d="M 336.5,587.5 C 337.824,601.314 338.491,615.314 338.5,629.5C 337.114,615.689 336.448,601.689 336.5,587.5 Z"/></g>
<g><path style="opacity:1" fill="#d0d3d9" d="M 339.5,665.5 C 339.833,665.5 340.167,665.5 340.5,665.5C 340.56,674.513 340.893,683.513 341.5,692.5C 339.741,683.733 339.075,674.733 339.5,665.5 Z"/></g>
<g><path style="opacity:1" fill="#2a303a" d="M 733.5,639.5 C 734.182,668.02 734.849,696.687 735.5,725.5C 734.785,786.724 734.451,848.058 734.5,909.5C 734.5,948.5 734.5,987.5 734.5,1026.5C 734.825,1033.69 734.491,1040.69 733.5,1047.5C 733.5,911.5 733.5,775.5 733.5,639.5 Z"/></g>
<g><path style="opacity:1" fill="#d3d7db" d="M 1149.5,688.5 C 1149.19,695.755 1149.52,702.921 1150.5,710C 1149.05,711.649 1148.05,713.482 1147.5,715.5C 1147.5,713.833 1147.5,712.167 1147.5,710.5C 1148.02,703.012 1148.69,695.678 1149.5,688.5 Z"/></g>
<g><path style="opacity:1" fill="#313b46" d="M 1125.5,675.5 C 1125.22,680.897 1125.55,686.23 1126.5,691.5C 1124.61,693.881 1124.11,696.547 1125,699.5C 1125.33,697.5 1125.67,695.5 1126,693.5C 1126.31,694.308 1126.81,694.975 1127.5,695.5C 1128.33,694.5 1129.17,693.5 1130,692.5C 1131.19,694.525 1132.69,694.859 1134.5,693.5C 1135.17,691.5 1135.83,689.5 1136.5,687.5C 1137.02,698.33 1138.02,708.996 1139.5,719.5C 1141.17,719.5 1142.83,719.5 1144.5,719.5C 1144.34,716.813 1144.5,714.146 1145,711.5C 1145.67,710.748 1146.5,710.414 1147.5,710.5C 1147.5,712.167 1147.5,713.833 1147.5,715.5C 1145.77,735.33 1143.1,754.996 1139.5,774.5C 1138.9,771.375 1137.73,771.042 1136,773.5C 1135.81,771.423 1135.31,769.423 1134.5,767.5C 1133.25,768.04 1132.09,768.707 1131,769.5C 1129.21,767.771 1127.04,767.104 1124.5,767.5C 1123.65,764.777 1122.48,762.11 1121,759.5C 1120.72,762.742 1119.88,763.076 1118.5,760.5C 1117.82,761.602 1117.16,762.602 1116.5,763.5C 1121.03,734.18 1124.03,704.847 1125.5,675.5 Z"/></g>
<g><path style="opacity:1" fill="#babec3" d="M 1237.5,733.5 C 1237.56,738.731 1236.89,743.731 1235.5,748.5C 1235.44,743.269 1236.11,738.269 1237.5,733.5 Z"/></g>
<g><path style="opacity:1" fill="#2e3843" d="M 363.5,637.5 C 364.662,673.585 366.995,709.585 370.5,745.5C 370.116,749.489 370.783,753.155 372.5,756.5C 374.654,771.602 377.321,786.602 380.5,801.5C 380.297,805.326 380.297,809.159 380.5,813C 383.088,820.369 385.755,827.036 388.5,833C 386.271,836.796 386.438,840.296 389,843.5C 389.317,841.699 389.984,841.366 391,842.5C 391.241,845.289 391.908,847.956 393,850.5C 393.77,849.402 394.603,849.402 395.5,850.5C 398.461,859.064 401.794,867.397 405.5,875.5C 427.855,927.979 458.021,975.312 496,1017.5C 523.553,1047.56 553.386,1074.9 585.5,1099.5C 597.524,1108.53 609.524,1117.53 621.5,1126.5C 619.381,1126.73 617.215,1127.06 615,1127.5C 613.739,1127.24 612.739,1126.57 612,1125.5C 611.805,1127.21 611.805,1128.87 612,1130.5C 611.667,1130.17 611.333,1129.83 611,1129.5C 607.385,1130.11 604.551,1131.95 602.5,1135C 604.134,1135.49 605.801,1135.66 607.5,1135.5C 607.5,1136.5 607.5,1137.5 607.5,1138.5C 602.82,1138.46 601.987,1139.79 605,1142.5C 605.414,1142.04 605.914,1141.71 606.5,1141.5C 607.429,1142.69 607.762,1144.02 607.5,1145.5C 542.909,1102.42 487.075,1049.75 440,987.5C 377.36,899.415 344.527,801.081 341.5,692.5C 340.893,683.513 340.56,674.513 340.5,665.5C 340.334,660.821 340.501,656.155 341,651.5C 341.333,653.167 341.667,654.833 342,656.5C 343.84,655.167 344.34,655.334 343.5,657C 345.621,660.279 346.954,660.112 347.5,656.5C 348.167,649.167 348.833,641.833 349.5,634.5C 349.514,632.407 348.848,630.574 347.5,629C 348.167,628.333 348.833,627.667 349.5,627C 348.549,626.282 348.383,625.449 349,624.5C 352.261,623.87 355.428,622.87 358.5,621.5C 359.23,623.341 359.897,625.175 360.5,627C 359.615,630.835 359.281,634.502 359.5,638C 361.077,639.93 362.41,639.763 363.5,637.5 Z"/></g>
<g><path style="opacity:1" fill="#6b7277" d="M 370.5,745.5 C 371.525,748.974 372.192,752.64 372.5,756.5C 370.783,753.155 370.116,749.489 370.5,745.5 Z"/></g>
<g><path style="opacity:1" fill="#d3d8dc" d="M 758.5,236.5 C 759.833,237.167 760.833,238.167 761.5,239.5C 760.5,239.5 759.5,239.5 758.5,239.5C 758.167,557.667 758.5,875.667 759.5,1193.5C 759.5,1194.17 759.167,1194.5 758.5,1194.5C 757.167,875.167 757.167,555.833 758.5,236.5 Z"/></g>
<g><path style="opacity:1" fill="#2b3640" d="M 1211.5,741.5 C 1212.32,744.773 1213.65,747.94 1215.5,751C 1218.82,751.498 1222.15,751.665 1225.5,751.5C 1225.47,753.582 1226.14,755.416 1227.5,757C 1229.58,759.134 1231.41,758.968 1233,756.5C 1232.71,759.413 1232.54,762.413 1232.5,765.5C 1231.98,769.481 1231.65,773.481 1231.5,777.5C 1229.06,789.432 1226.39,801.432 1223.5,813.5C 1222.14,814.007 1221.14,815.007 1220.5,816.5C 1219.7,814.922 1219.2,813.256 1219,811.5C 1218.11,812.711 1217.27,812.711 1216.5,811.5C 1217.33,810.549 1217.49,809.549 1217,808.5C 1215.64,809.38 1214.14,809.714 1212.5,809.5C 1212.43,811.696 1211.77,813.696 1210.5,815.5C 1210.17,815 1209.83,814.5 1209.5,814C 1208.77,810.206 1208.27,806.373 1208,802.5C 1207.67,803.5 1207.33,804.5 1207,805.5C 1205.97,801.378 1205.81,797.212 1206.5,793C 1204.91,790.744 1204.25,788.244 1204.5,785.5C 1207,770.853 1209.33,756.186 1211.5,741.5 Z"/></g>
<g><path style="opacity:1" fill="#2b3742" d="M 1139.5,774.5 C 1137.32,788.484 1134.32,802.151 1130.5,815.5C 1128.75,816.981 1127.59,818.981 1127,821.5C 1125.67,820.167 1124.33,818.833 1123,817.5C 1120.42,822.504 1119.26,821.837 1119.5,815.5C 1117.83,815.5 1116.17,815.5 1114.5,815.5C 1114.66,812.813 1114.5,810.146 1114,807.5C 1112.21,812.733 1111.05,812.399 1110.5,806.5C 1112.87,799.018 1113.87,791.351 1113.5,783.5C 1114.18,776.78 1115.18,770.113 1116.5,763.5C 1117.16,762.602 1117.82,761.602 1118.5,760.5C 1119.88,763.076 1120.72,762.742 1121,759.5C 1122.48,762.11 1123.65,764.777 1124.5,767.5C 1127.04,767.104 1129.21,767.771 1131,769.5C 1132.09,768.707 1133.25,768.04 1134.5,767.5C 1135.31,769.423 1135.81,771.423 1136,773.5C 1137.73,771.042 1138.9,771.375 1139.5,774.5 Z"/></g>
<g><path style="opacity:1" fill="#2e3844" d="M 734.5,909.5 C 734.451,848.058 734.785,786.724 735.5,725.5C 734.849,696.687 734.182,668.02 733.5,639.5C 733.5,637.833 733.5,636.167 733.5,634.5C 734.268,633.737 734.768,632.737 735,631.5C 736,632.5 737,633.5 738,634.5C 742.349,634.321 746.849,634.321 751.5,634.5C 751.5,630.833 751.5,627.167 751.5,623.5C 752.5,623.5 753.5,623.5 754.5,623.5C 754.36,637.319 754.693,650.986 755.5,664.5C 755.101,670.132 754.101,675.632 752.5,681C 752.63,682.059 753.13,682.892 754,683.5C 754.167,686.833 754.333,690.167 754.5,693.5C 753.943,711.272 753.943,728.939 754.5,746.5C 752.386,763.243 752.386,779.91 754.5,796.5C 754.411,813.784 754.411,830.951 754.5,848C 754.145,861.182 753.478,874.349 752.5,887.5C 753.333,899.491 753.999,911.491 754.5,923.5C 753.986,946.275 753.986,968.942 754.5,991.5C 753.5,991.5 752.5,991.5 751.5,991.5C 751.322,987.898 750.322,987.898 748.5,991.5C 747.01,989.874 745.51,988.208 744,986.5C 741.281,987.444 738.448,987.777 735.5,987.5C 735.104,984.956 735.771,982.789 737.5,981C 736.196,980.196 735.529,979.029 735.5,977.5C 736.369,974.059 737.536,970.726 739,967.5C 740.279,970.673 740.779,973.673 740.5,976.5C 741.308,976.192 741.975,975.692 742.5,975C 741.892,973.769 741.559,972.436 741.5,971C 742.194,968.447 743.027,965.947 744,963.5C 746.333,963.5 748.667,963.5 751,963.5C 751.667,962.167 751.667,960.833 751,959.5C 749.501,961.756 747.834,961.756 746,959.5C 743.922,960.943 743.089,960.276 743.5,957.5C 746.167,957.5 748.833,957.5 751.5,957.5C 751.5,956.167 751.5,954.833 751.5,953.5C 748.753,953.813 746.086,953.48 743.5,952.5C 747.311,945.416 745.978,939.75 739.5,935.5C 738.808,932.855 737.808,930.355 736.5,928C 737.448,927.517 738.448,927.351 739.5,927.5C 739.281,928.675 739.614,929.675 740.5,930.5C 742.246,928.146 744.579,927.146 747.5,927.5C 747.281,926.325 747.614,925.325 748.5,924.5C 750.62,925.872 751.62,925.205 751.5,922.5C 750.167,922.5 748.833,922.5 747.5,922.5C 747.201,920.396 747.534,918.396 748.5,916.5C 751.079,915.112 751.079,913.612 748.5,912C 749.833,910.333 749.833,908.667 748.5,907C 749.448,906.517 750.448,906.351 751.5,906.5C 751.5,902.833 751.5,899.167 751.5,895.5C 747.317,895.863 743.317,895.196 739.5,893.5C 738.833,893.833 738.167,894.167 737.5,894.5C 735.938,899.46 734.938,904.46 734.5,909.5 Z"/></g>
<g><path style="opacity:1" fill="#303b46" d="M 1204.5,785.5 C 1204.25,788.244 1204.91,790.744 1206.5,793C 1205.81,797.212 1205.97,801.378 1207,805.5C 1207.33,804.5 1207.67,803.5 1208,802.5C 1208.27,806.373 1208.77,810.206 1209.5,814C 1209.83,814.5 1210.17,815 1210.5,815.5C 1211.77,813.696 1212.43,811.696 1212.5,809.5C 1214.14,809.714 1215.64,809.38 1217,808.5C 1217.49,809.549 1217.33,810.549 1216.5,811.5C 1217.27,812.711 1218.11,812.711 1219,811.5C 1219.2,813.256 1219.7,814.922 1220.5,816.5C 1221.14,815.007 1222.14,814.007 1223.5,813.5C 1223.5,814.167 1223.5,814.833 1223.5,815.5C 1220.69,825.402 1218.19,835.402 1216,845.5C 1214.56,849.648 1213.06,853.648 1211.5,857.5C 1210.75,855.657 1209.42,854.324 1207.5,853.5C 1206.95,850.28 1205.61,847.447 1203.5,845C 1204.38,843.644 1204.71,842.144 1204.5,840.5C 1202.49,841.014 1200.49,841.18 1198.5,841C 1199.93,839.12 1199.6,837.62 1197.5,836.5C 1196.16,838.005 1194.49,838.672 1192.5,838.5C 1192.74,839.791 1192.4,840.791 1191.5,841.5C 1196.36,822.858 1200.69,804.192 1204.5,785.5 Z"/></g>
<g><path style="opacity:1" fill="#dee3e6" d="M 1231.5,777.5 C 1231.67,782.179 1231.5,786.845 1231,791.5C 1229.73,795.811 1228.56,800.144 1227.5,804.5C 1228.77,809.101 1227.43,812.768 1223.5,815.5C 1223.5,814.833 1223.5,814.167 1223.5,813.5C 1226.39,801.432 1229.06,789.432 1231.5,777.5 Z"/></g>
<g><path style="opacity:1" fill="#3d464c" d="M 380.5,801.5 C 385.014,817.868 390.014,834.201 395.5,850.5C 394.603,849.402 393.77,849.402 393,850.5C 391.908,847.956 391.241,845.289 391,842.5C 389.984,841.366 389.317,841.699 389,843.5C 386.438,840.296 386.271,836.796 388.5,833C 385.755,827.036 383.088,820.369 380.5,813C 380.297,809.159 380.297,805.326 380.5,801.5 Z"/></g>
<g><path style="opacity:1" fill="#303c46" d="M 1113.5,783.5 C 1113.87,791.351 1112.87,799.018 1110.5,806.5C 1111.05,812.399 1112.21,812.733 1114,807.5C 1114.5,810.146 1114.66,812.813 1114.5,815.5C 1116.17,815.5 1117.83,815.5 1119.5,815.5C 1119.26,821.837 1120.42,822.504 1123,817.5C 1124.33,818.833 1125.67,820.167 1127,821.5C 1127.59,818.981 1128.75,816.981 1130.5,815.5C 1125.74,835.454 1119.4,854.787 1111.5,873.5C 1109.83,871.992 1108,871.659 1106,872.5C 1105.98,869.949 1106.48,867.449 1107.5,865C 1105.78,863.943 1103.95,863.11 1102,862.5C 1100.85,859.289 1100.18,855.956 1100,852.5C 1098.02,853.714 1096.52,855.381 1095.5,857.5C 1094.57,858.641 1093.74,858.641 1093,857.5C 1092.95,859.744 1092.12,861.411 1090.5,862.5C 1099.9,836.555 1107.57,810.221 1113.5,783.5 Z"/></g>
<g><path style="opacity:1" fill="#2b3741" d="M 1211.5,857.5 C 1207.93,870.78 1203.6,883.78 1198.5,896.5C 1197.5,896.5 1196.5,896.5 1195.5,896.5C 1195.07,899.166 1194.57,901.832 1194,904.5C 1191.9,901.819 1192.06,899.319 1194.5,897C 1193.87,896.25 1193.37,895.416 1193,894.5C 1192.67,894.833 1192.33,895.167 1192,895.5C 1191.32,894.216 1191.48,893.049 1192.5,892C 1189.73,889.746 1188.06,886.913 1187.5,883.5C 1185.55,883.227 1184.05,883.893 1183,885.5C 1182.28,881.855 1181.78,878.188 1181.5,874.5C 1184.59,863.329 1187.93,852.329 1191.5,841.5C 1192.4,840.791 1192.74,839.791 1192.5,838.5C 1194.49,838.672 1196.16,838.005 1197.5,836.5C 1199.6,837.62 1199.93,839.12 1198.5,841C 1200.49,841.18 1202.49,841.014 1204.5,840.5C 1204.71,842.144 1204.38,843.644 1203.5,845C 1205.61,847.447 1206.95,850.28 1207.5,853.5C 1209.42,854.324 1210.75,855.657 1211.5,857.5 Z"/></g>
<g><path style="opacity:1" fill="#2a3640" d="M 1111.5,873.5 C 1106.27,888.637 1099.93,903.303 1092.5,917.5C 1090.11,918.219 1088.61,919.885 1088,922.5C 1087.55,919.233 1086.71,916.066 1085.5,913C 1086.02,912.05 1086.69,911.216 1087.5,910.5C 1087.06,909.494 1086.4,909.494 1085.5,910.5C 1084.61,909.675 1084.28,908.675 1084.5,907.5C 1085.68,907.719 1086.68,907.386 1087.5,906.5C 1088.12,902.452 1089.79,898.952 1092.5,896C 1090.87,895.506 1089.2,895.34 1087.5,895.5C 1088.08,898.55 1086.91,900.55 1084,901.5C 1083.94,903.883 1083.1,904.55 1081.5,903.5C 1080.33,906.469 1079,906.802 1077.5,904.5C 1076.81,905.025 1076.31,905.692 1076,906.5C 1075.34,904.892 1075.84,903.725 1077.5,903C 1076.83,902.667 1076.17,902.333 1075.5,902C 1076.41,900.586 1076.41,899.086 1075.5,897.5C 1080.7,885.91 1085.7,874.244 1090.5,862.5C 1092.12,861.411 1092.95,859.744 1093,857.5C 1093.74,858.641 1094.57,858.641 1095.5,857.5C 1096.52,855.381 1098.02,853.714 1100,852.5C 1100.18,855.956 1100.85,859.289 1102,862.5C 1103.95,863.11 1105.78,863.943 1107.5,865C 1106.48,867.449 1105.98,869.949 1106,872.5C 1108,871.659 1109.83,871.992 1111.5,873.5 Z"/></g>
<g><path style="opacity:1" fill="#2f3b46" d="M 1181.5,874.5 C 1181.78,878.188 1182.28,881.855 1183,885.5C 1184.05,883.893 1185.55,883.227 1187.5,883.5C 1188.06,886.913 1189.73,889.746 1192.5,892C 1191.48,893.049 1191.32,894.216 1192,895.5C 1192.33,895.167 1192.67,894.833 1193,894.5C 1193.37,895.416 1193.87,896.25 1194.5,897C 1192.06,899.319 1191.9,901.819 1194,904.5C 1194.57,901.832 1195.07,899.166 1195.5,896.5C 1196.5,896.5 1197.5,896.5 1198.5,896.5C 1193.93,909.24 1188.59,921.573 1182.5,933.5C 1182.72,932.325 1182.39,931.325 1181.5,930.5C 1179.34,931.707 1177.01,932.707 1174.5,933.5C 1172.21,932.58 1169.88,932.58 1167.5,933.5C 1167.84,930.38 1167.18,927.547 1165.5,925C 1167.24,922.002 1166.58,919.836 1163.5,918.5C 1169.01,903.508 1175.01,888.841 1181.5,874.5 Z"/></g>
<g><path style="opacity:1" fill="#2f3b45" d="M 1092.5,917.5 C 1081.91,939.034 1069.58,959.367 1055.5,978.5C 1055.29,976.856 1055.62,975.356 1056.5,974C 1055.83,973.667 1055.17,973.333 1054.5,973C 1055.81,972.176 1057.31,971.676 1059,971.5C 1059.5,970 1060,968.5 1060.5,967C 1064.42,964.341 1065.92,960.841 1065,956.5C 1065.65,957.696 1066.15,957.696 1066.5,956.5C 1063.45,954.613 1060.28,952.946 1057,951.5C 1056.05,951.905 1055.39,952.572 1055,953.5C 1054.79,951.141 1054.63,948.974 1054.5,947C 1052.89,946.342 1051.73,946.842 1051,948.5C 1049.99,947.663 1048.82,947.33 1047.5,947.5C 1057.88,931.413 1067.21,914.746 1075.5,897.5C 1076.41,899.086 1076.41,900.586 1075.5,902C 1076.17,902.333 1076.83,902.667 1077.5,903C 1075.84,903.725 1075.34,904.892 1076,906.5C 1076.31,905.692 1076.81,905.025 1077.5,904.5C 1079,906.802 1080.33,906.469 1081.5,903.5C 1083.1,904.55 1083.94,903.883 1084,901.5C 1086.91,900.55 1088.08,898.55 1087.5,895.5C 1089.2,895.34 1090.87,895.506 1092.5,896C 1089.79,898.952 1088.12,902.452 1087.5,906.5C 1086.68,907.386 1085.68,907.719 1084.5,907.5C 1084.28,908.675 1084.61,909.675 1085.5,910.5C 1086.4,909.494 1087.06,909.494 1087.5,910.5C 1086.69,911.216 1086.02,912.05 1085.5,913C 1086.71,916.066 1087.55,919.233 1088,922.5C 1088.61,919.885 1090.11,918.219 1092.5,917.5 Z"/></g>
<g><path style="opacity:1" fill="#fbfcfa" d="M 417.5,818.5 C 439.465,888.458 475.299,950.125 525,1003.5C 540.731,1019.73 556.898,1035.4 573.5,1050.5C 584.234,1059.91 595.234,1068.91 606.5,1077.5C 603.241,1078.66 599.907,1079.66 596.5,1080.5C 595.999,1077.6 594.333,1076.1 591.5,1076C 592.821,1077.54 592.488,1078.71 590.5,1079.5C 588.32,1077.91 585.987,1076.58 583.5,1075.5C 584.04,1074.25 584.707,1073.09 585.5,1072C 583.527,1071.5 581.527,1071.34 579.5,1071.5C 579.55,1069.41 578.55,1068.08 576.5,1067.5C 572.72,1068.8 569.053,1070.3 565.5,1072C 567.879,1074.15 570.045,1073.98 572,1071.5C 573.135,1071.73 574.302,1072.06 575.5,1072.5C 574.359,1073.43 574.359,1074.26 575.5,1075C 571.226,1077.66 571.059,1080.16 575,1082.5C 575.388,1081.57 576.055,1080.91 577,1080.5C 580.865,1082.21 583.031,1085.21 583.5,1089.5C 586.926,1091.26 587.259,1093.43 584.5,1096C 585.337,1097.01 585.67,1098.18 585.5,1099.5C 553.386,1074.9 523.553,1047.56 496,1017.5C 458.021,975.312 427.855,927.979 405.5,875.5C 407.009,871.217 406.342,867.217 403.5,863.5C 403.833,862.833 404.167,862.167 404.5,861.5C 403.817,858.539 402.984,858.205 402,860.5C 401.316,859.216 401.483,858.049 402.5,857C 401.584,856.626 400.75,856.126 400,855.5C 398.522,850.742 397.355,846.242 396.5,842C 398.934,841.667 399.934,842.834 399.5,845.5C 402.788,845.073 405.788,845.74 408.5,847.5C 410.523,845.827 412.856,845.16 415.5,845.5C 414.436,842.373 413.103,839.373 411.5,836.5C 412.833,836.5 414.167,836.5 415.5,836.5C 415.5,834.833 415.5,833.167 415.5,831.5C 413.712,831.785 412.045,831.452 410.5,830.5C 411.189,828.556 411.689,826.556 412,824.5C 413.011,823.663 414.178,823.33 415.5,823.5C 416.167,821.833 416.833,820.167 417.5,818.5 Z"/></g>
<g><path style="opacity:1" fill="#293540" d="M 1055.5,978.5 C 1055.5,978.833 1055.5,979.167 1055.5,979.5C 1054.6,978.402 1053.77,978.402 1053,979.5C 1052.67,978.5 1052.33,977.5 1052,976.5C 1051,976.167 1050,975.833 1049,975.5C 1045.42,978.884 1044.92,982.55 1047.5,986.5C 1046,988.167 1044.5,989.833 1043,991.5C 1042.33,988.833 1041.67,988.833 1041,991.5C 1038.71,991.263 1036.21,991.263 1033.5,991.5C 1033.64,989.876 1032.97,988.71 1031.5,988C 1032.69,986.981 1033.69,985.814 1034.5,984.5C 1032.5,984.167 1030.5,983.833 1028.5,983.5C 1027.54,981.925 1026.88,980.258 1026.5,978.5C 1033.74,968.368 1040.74,958.035 1047.5,947.5C 1048.82,947.33 1049.99,947.663 1051,948.5C 1051.73,946.842 1052.89,946.342 1054.5,947C 1054.63,948.974 1054.79,951.141 1055,953.5C 1055.39,952.572 1056.05,951.905 1057,951.5C 1060.28,952.946 1063.45,954.613 1066.5,956.5C 1066.15,957.696 1065.65,957.696 1065,956.5C 1065.92,960.841 1064.42,964.341 1060.5,967C 1060,968.5 1059.5,970 1059,971.5C 1057.31,971.676 1055.81,972.176 1054.5,973C 1055.17,973.333 1055.83,973.667 1056.5,974C 1055.62,975.356 1055.29,976.856 1055.5,978.5 Z"/></g>
<g><path style="opacity:1" fill="#2f3943" d="M 584.5,1027.5 C 583.293,1028.19 581.959,1028.36 580.5,1028C 581.634,1029.02 581.301,1029.68 579.5,1030C 579.833,1030.33 580.167,1030.67 580.5,1031C 578.954,1034.01 577.287,1036.85 575.5,1039.5C 573.302,1040.01 571.302,1041.01 569.5,1042.5C 568.5,1041.83 567.5,1041.17 566.5,1040.5C 566.167,1040.83 565.833,1041.17 565.5,1041.5C 569.05,1045.21 573.384,1047.38 578.5,1048C 577.333,1048.5 576.5,1049.33 576,1050.5C 575.023,1049.23 574.189,1049.23 573.5,1050.5C 556.898,1035.4 540.731,1019.73 525,1003.5C 475.299,950.125 439.465,888.458 417.5,818.5C 408.682,786.906 403.015,754.739 400.5,722C 399.653,716.713 400.987,712.213 404.5,708.5C 412.905,704.581 419.405,706.581 424,714.5C 429.423,793.292 454.09,865.292 498,930.5C 523.388,965.732 552.222,998.066 584.5,1027.5 Z"/></g>
<g><path style="opacity:1" fill="#2d3843" d="M 1055.5,979.5 C 1006.04,1046.79 946.71,1103.63 877.5,1150C 867.617,1156.72 857.617,1163.22 847.5,1169.5C 845.064,1169.32 842.897,1169.98 841,1171.5C 838.493,1170.93 835.993,1170.6 833.5,1170.5C 832.808,1171.03 832.308,1171.69 832,1172.5C 829.993,1169.79 830.826,1168.29 834.5,1168C 833.975,1167.31 833.308,1166.81 832.5,1166.5C 830.568,1167.52 828.568,1167.69 826.5,1167C 827.949,1165.88 829.616,1165.22 831.5,1165C 829.323,1163.8 826.989,1163.3 824.5,1163.5C 824.762,1162.02 824.429,1160.69 823.5,1159.5C 822.808,1160.03 822.308,1160.69 822,1161.5C 821.764,1159.88 820.931,1158.88 819.5,1158.5C 839.446,1145.85 859.112,1132.69 878.5,1119C 934.424,1079.25 983.758,1032.41 1026.5,978.5C 1026.88,980.258 1027.54,981.925 1028.5,983.5C 1030.5,983.833 1032.5,984.167 1034.5,984.5C 1033.69,985.814 1032.69,986.981 1031.5,988C 1032.97,988.71 1033.64,989.876 1033.5,991.5C 1036.21,991.263 1038.71,991.263 1041,991.5C 1041.67,988.833 1042.33,988.833 1043,991.5C 1044.5,989.833 1046,988.167 1047.5,986.5C 1044.92,982.55 1045.42,978.884 1049,975.5C 1050,975.833 1051,976.167 1052,976.5C 1052.33,977.5 1052.67,978.5 1053,979.5C 1053.77,978.402 1054.6,978.402 1055.5,979.5 Z"/></g>
<g><path style="opacity:1" fill="#2c3741" d="M 584.5,1027.5 C 613.976,1053.48 645.31,1076.98 678.5,1098C 680.709,1099.87 682.542,1102.04 684,1104.5C 684.675,1116.16 679.175,1121.32 667.5,1120C 646.439,1106.81 626.106,1092.64 606.5,1077.5C 595.234,1068.91 584.234,1059.91 573.5,1050.5C 574.189,1049.23 575.023,1049.23 576,1050.5C 576.5,1049.33 577.333,1048.5 578.5,1048C 573.384,1047.38 569.05,1045.21 565.5,1041.5C 565.833,1041.17 566.167,1040.83 566.5,1040.5C 567.5,1041.17 568.5,1041.83 569.5,1042.5C 571.302,1041.01 573.302,1040.01 575.5,1039.5C 577.287,1036.85 578.954,1034.01 580.5,1031C 580.167,1030.67 579.833,1030.33 579.5,1030C 581.301,1029.68 581.634,1029.02 580.5,1028C 581.959,1028.36 583.293,1028.19 584.5,1027.5 Z"/></g>
<g><path style="opacity:1" fill="#2d3841" d="M 756.5,1019.5 C 756.167,1078.17 756.5,1136.84 757.5,1195.5C 758.107,1195.38 758.44,1195.04 758.5,1194.5C 759.167,1194.5 759.5,1194.17 759.5,1193.5C 779.828,1182.34 799.828,1170.67 819.5,1158.5C 820.931,1158.88 821.764,1159.88 822,1161.5C 822.308,1160.69 822.808,1160.03 823.5,1159.5C 824.429,1160.69 824.762,1162.02 824.5,1163.5C 826.989,1163.3 829.323,1163.8 831.5,1165C 829.616,1165.22 827.949,1165.88 826.5,1167C 828.568,1167.69 830.568,1167.52 832.5,1166.5C 833.308,1166.81 833.975,1167.31 834.5,1168C 830.826,1168.29 829.993,1169.79 832,1172.5C 832.308,1171.69 832.808,1171.03 833.5,1170.5C 835.993,1170.6 838.493,1170.93 841,1171.5C 842.897,1169.98 845.064,1169.32 847.5,1169.5C 814.69,1191.33 780.524,1210.99 745,1228.5C 696.671,1204.61 650.837,1176.94 607.5,1145.5C 607.762,1144.02 607.429,1142.69 606.5,1141.5C 605.914,1141.71 605.414,1142.04 605,1142.5C 601.987,1139.79 602.82,1138.46 607.5,1138.5C 607.5,1137.5 607.5,1136.5 607.5,1135.5C 605.801,1135.66 604.134,1135.49 602.5,1135C 604.551,1131.95 607.385,1130.11 611,1129.5C 611.333,1129.83 611.667,1130.17 612,1130.5C 611.805,1128.87 611.805,1127.21 612,1125.5C 612.739,1126.57 613.739,1127.24 615,1127.5C 617.215,1127.06 619.381,1126.73 621.5,1126.5C 657.331,1150.92 694.331,1173.59 732.5,1194.5C 733.499,1145.67 733.832,1096.67 733.5,1047.5C 734.491,1040.69 734.825,1033.69 734.5,1026.5C 735.268,1025.74 735.768,1024.74 736,1023.5C 736.497,1026.15 736.664,1028.81 736.5,1031.5C 737.5,1031.5 738.5,1031.5 739.5,1031.5C 739.336,1028.81 739.503,1026.15 740,1023.5C 741.049,1022.48 742.216,1022.32 743.5,1023C 742.383,1026.07 742.216,1029.24 743,1032.5C 744.356,1031.62 745.856,1031.29 747.5,1031.5C 747.5,1028.83 747.5,1026.17 747.5,1023.5C 746.5,1023.5 745.5,1023.5 744.5,1023.5C 744.662,1021.47 744.495,1019.47 744,1017.5C 742.933,1016.81 741.766,1016.31 740.5,1016C 743.844,1014.11 745.178,1011.27 744.5,1007.5C 746.833,1007.5 749.167,1007.5 751.5,1007.5C 751.5,1023.5 751.5,1039.5 751.5,1055.5C 749.712,1055.21 748.045,1055.55 746.5,1056.5C 746.687,1061.38 746.687,1066.38 746.5,1071.5C 742.815,1072.23 740.982,1074.56 741,1078.5C 740.586,1078.04 740.086,1077.71 739.5,1077.5C 738.343,1080.78 738.176,1084.12 739,1087.5C 739.829,1076.85 740.329,1076.85 740.5,1087.5C 741.5,1087.5 742.5,1087.5 743.5,1087.5C 743.808,1089.92 743.474,1092.26 742.5,1094.5C 741.571,1093.31 741.238,1091.98 741.5,1090.5C 739.5,1090.5 737.5,1090.5 735.5,1090.5C 734.771,1105.49 734.438,1120.49 734.5,1135.5C 736.167,1135.5 737.833,1135.5 739.5,1135.5C 739.5,1140.83 739.5,1146.17 739.5,1151.5C 738.167,1151.5 736.833,1151.5 735.5,1151.5C 735.238,1152.98 735.571,1154.31 736.5,1155.5C 737.086,1155.29 737.586,1154.96 738,1154.5C 741.724,1158.39 743.557,1157.39 743.5,1151.5C 739.757,1151.54 739.59,1150.87 743,1149.5C 744.88,1150.93 746.38,1150.6 747.5,1148.5C 747.739,1142.49 747.239,1136.49 746,1130.5C 749.931,1135.42 751.931,1141.09 752,1147.5C 752.333,1146.17 752.667,1144.83 753,1143.5C 753.216,1135.96 753.716,1128.46 754.5,1121C 753.685,1109.81 753.351,1098.64 753.5,1087.5C 753.876,1082.44 754.543,1077.44 755.5,1072.5C 754.675,1071.61 753.675,1071.28 752.5,1071.5C 752.336,1068.81 752.503,1066.15 753,1063.5C 753.333,1064.83 753.667,1066.17 754,1067.5C 754.167,1066.67 754.333,1065.83 754.5,1065C 753.66,1063.06 752.993,1061.06 752.5,1059C 753.252,1048.18 753.752,1037.35 754,1026.5C 754.698,1024 755.531,1021.66 756.5,1019.5 Z"/></g>
<g><path style="opacity:1" fill="#2d3843" d="M 1163.5,918.5 C 1166.58,919.836 1167.24,922.002 1165.5,925C 1167.18,927.547 1167.84,930.38 1167.5,933.5C 1169.88,932.58 1172.21,932.58 1174.5,933.5C 1177.01,932.707 1179.34,931.707 1181.5,930.5C 1182.39,931.325 1182.72,932.325 1182.5,933.5C 1162.08,978.39 1136.58,1020.06 1106,1058.5C 1072.27,1100.56 1034.77,1139.06 993.5,1174C 919.741,1235.74 839.408,1287.74 752.5,1330C 743.901,1332.95 736.234,1331.45 729.5,1325.5C 728.928,1323.78 728.928,1322.28 729.5,1321C 726.207,1320.17 722.874,1319.67 719.5,1319.5C 719.67,1318.18 719.337,1317.01 718.5,1316C 715.771,1316 713.771,1314.83 712.5,1312.5C 716.5,1311.83 720.5,1311.17 724.5,1310.5C 725.641,1309.57 725.641,1308.74 724.5,1308C 728.17,1306.09 731.503,1303.93 734.5,1301.5C 737.262,1302.38 739.929,1303.55 742.5,1305C 744.167,1305.67 745.833,1305.67 747.5,1305C 851.343,1254.46 944.676,1189.13 1027.5,1109C 1083.97,1053.37 1129.31,989.874 1163.5,918.5 Z"/></g>
</svg>
